<mxfile host="Electron" modified="2024-05-16T11:01:38.114Z" agent="Mozilla/5.0 (Windows NT 10.0; Win64; x64) AppleWebKit/537.36 (KHTML, like Gecko) draw.io/21.8.2 Chrome/114.0.5735.289 Electron/25.8.1 Safari/537.36" etag="RDQ4CCHTRLtSk-Vxsek-" version="21.8.2" type="device">
  <diagram name="Page-1" id="lgJ8uEHZr4S12oD6W6Si">
    <mxGraphModel dx="1522" dy="1689" grid="1" gridSize="10" guides="1" tooltips="1" connect="1" arrows="1" fold="1" page="1" pageScale="1" pageWidth="850" pageHeight="1100" math="0" shadow="0">
      <root>
        <mxCell id="0" />
        <mxCell id="1" parent="0" />
        <mxCell id="lYNnbbYN6PRXDm3UlzL1-1" value="Proveedor" style="shape=table;startSize=30;container=1;collapsible=1;childLayout=tableLayout;fixedRows=1;rowLines=0;fontStyle=1;align=center;resizeLast=1;html=1;" parent="1" vertex="1">
          <mxGeometry x="120" y="130" width="180" height="240" as="geometry" />
        </mxCell>
        <mxCell id="lYNnbbYN6PRXDm3UlzL1-2" value="" style="shape=tableRow;horizontal=0;startSize=0;swimlaneHead=0;swimlaneBody=0;fillColor=none;collapsible=0;dropTarget=0;points=[[0,0.5],[1,0.5]];portConstraint=eastwest;top=0;left=0;right=0;bottom=1;" parent="lYNnbbYN6PRXDm3UlzL1-1" vertex="1">
          <mxGeometry y="30" width="180" height="30" as="geometry" />
        </mxCell>
        <mxCell id="lYNnbbYN6PRXDm3UlzL1-3" value="PK" style="shape=partialRectangle;connectable=0;fillColor=none;top=0;left=0;bottom=0;right=0;fontStyle=1;overflow=hidden;whiteSpace=wrap;html=1;" parent="lYNnbbYN6PRXDm3UlzL1-2" vertex="1">
          <mxGeometry width="30" height="30" as="geometry">
            <mxRectangle width="30" height="30" as="alternateBounds" />
          </mxGeometry>
        </mxCell>
        <mxCell id="lYNnbbYN6PRXDm3UlzL1-4" value="cedula/varchar12" style="shape=partialRectangle;connectable=0;fillColor=none;top=0;left=0;bottom=0;right=0;align=left;spacingLeft=6;fontStyle=5;overflow=hidden;whiteSpace=wrap;html=1;" parent="lYNnbbYN6PRXDm3UlzL1-2" vertex="1">
          <mxGeometry x="30" width="150" height="30" as="geometry">
            <mxRectangle width="150" height="30" as="alternateBounds" />
          </mxGeometry>
        </mxCell>
        <mxCell id="lYNnbbYN6PRXDm3UlzL1-5" value="" style="shape=tableRow;horizontal=0;startSize=0;swimlaneHead=0;swimlaneBody=0;fillColor=none;collapsible=0;dropTarget=0;points=[[0,0.5],[1,0.5]];portConstraint=eastwest;top=0;left=0;right=0;bottom=0;" parent="lYNnbbYN6PRXDm3UlzL1-1" vertex="1">
          <mxGeometry y="60" width="180" height="30" as="geometry" />
        </mxCell>
        <mxCell id="lYNnbbYN6PRXDm3UlzL1-6" value="" style="shape=partialRectangle;connectable=0;fillColor=none;top=0;left=0;bottom=0;right=0;editable=1;overflow=hidden;whiteSpace=wrap;html=1;" parent="lYNnbbYN6PRXDm3UlzL1-5" vertex="1">
          <mxGeometry width="30" height="30" as="geometry">
            <mxRectangle width="30" height="30" as="alternateBounds" />
          </mxGeometry>
        </mxCell>
        <mxCell id="lYNnbbYN6PRXDm3UlzL1-7" value="nombre/varchar 20" style="shape=partialRectangle;connectable=0;fillColor=none;top=0;left=0;bottom=0;right=0;align=left;spacingLeft=6;overflow=hidden;whiteSpace=wrap;html=1;" parent="lYNnbbYN6PRXDm3UlzL1-5" vertex="1">
          <mxGeometry x="30" width="150" height="30" as="geometry">
            <mxRectangle width="150" height="30" as="alternateBounds" />
          </mxGeometry>
        </mxCell>
        <mxCell id="lYNnbbYN6PRXDm3UlzL1-27" value="" style="shape=tableRow;horizontal=0;startSize=0;swimlaneHead=0;swimlaneBody=0;fillColor=none;collapsible=0;dropTarget=0;points=[[0,0.5],[1,0.5]];portConstraint=eastwest;top=0;left=0;right=0;bottom=0;" parent="lYNnbbYN6PRXDm3UlzL1-1" vertex="1">
          <mxGeometry y="90" width="180" height="30" as="geometry" />
        </mxCell>
        <mxCell id="lYNnbbYN6PRXDm3UlzL1-28" value="" style="shape=partialRectangle;connectable=0;fillColor=none;top=0;left=0;bottom=0;right=0;editable=1;overflow=hidden;whiteSpace=wrap;html=1;" parent="lYNnbbYN6PRXDm3UlzL1-27" vertex="1">
          <mxGeometry width="30" height="30" as="geometry">
            <mxRectangle width="30" height="30" as="alternateBounds" />
          </mxGeometry>
        </mxCell>
        <mxCell id="lYNnbbYN6PRXDm3UlzL1-29" value="contrasena/ varchar 12" style="shape=partialRectangle;connectable=0;fillColor=none;top=0;left=0;bottom=0;right=0;align=left;spacingLeft=6;overflow=hidden;whiteSpace=wrap;html=1;" parent="lYNnbbYN6PRXDm3UlzL1-27" vertex="1">
          <mxGeometry x="30" width="150" height="30" as="geometry">
            <mxRectangle width="150" height="30" as="alternateBounds" />
          </mxGeometry>
        </mxCell>
        <mxCell id="lYNnbbYN6PRXDm3UlzL1-8" value="" style="shape=tableRow;horizontal=0;startSize=0;swimlaneHead=0;swimlaneBody=0;fillColor=none;collapsible=0;dropTarget=0;points=[[0,0.5],[1,0.5]];portConstraint=eastwest;top=0;left=0;right=0;bottom=0;" parent="lYNnbbYN6PRXDm3UlzL1-1" vertex="1">
          <mxGeometry y="120" width="180" height="30" as="geometry" />
        </mxCell>
        <mxCell id="lYNnbbYN6PRXDm3UlzL1-9" value="" style="shape=partialRectangle;connectable=0;fillColor=none;top=0;left=0;bottom=0;right=0;editable=1;overflow=hidden;whiteSpace=wrap;html=1;" parent="lYNnbbYN6PRXDm3UlzL1-8" vertex="1">
          <mxGeometry width="30" height="30" as="geometry">
            <mxRectangle width="30" height="30" as="alternateBounds" />
          </mxGeometry>
        </mxCell>
        <mxCell id="lYNnbbYN6PRXDm3UlzL1-10" value="correo/ varchar 50" style="shape=partialRectangle;connectable=0;fillColor=none;top=0;left=0;bottom=0;right=0;align=left;spacingLeft=6;overflow=hidden;whiteSpace=wrap;html=1;" parent="lYNnbbYN6PRXDm3UlzL1-8" vertex="1">
          <mxGeometry x="30" width="150" height="30" as="geometry">
            <mxRectangle width="150" height="30" as="alternateBounds" />
          </mxGeometry>
        </mxCell>
        <mxCell id="JmZ1PSF2BTuWSMm5LOEp-1" value="" style="shape=tableRow;horizontal=0;startSize=0;swimlaneHead=0;swimlaneBody=0;fillColor=none;collapsible=0;dropTarget=0;points=[[0,0.5],[1,0.5]];portConstraint=eastwest;top=0;left=0;right=0;bottom=0;" parent="lYNnbbYN6PRXDm3UlzL1-1" vertex="1">
          <mxGeometry y="150" width="180" height="30" as="geometry" />
        </mxCell>
        <mxCell id="JmZ1PSF2BTuWSMm5LOEp-2" value="" style="shape=partialRectangle;connectable=0;fillColor=none;top=0;left=0;bottom=0;right=0;editable=1;overflow=hidden;whiteSpace=wrap;html=1;" parent="JmZ1PSF2BTuWSMm5LOEp-1" vertex="1">
          <mxGeometry width="30" height="30" as="geometry">
            <mxRectangle width="30" height="30" as="alternateBounds" />
          </mxGeometry>
        </mxCell>
        <mxCell id="JmZ1PSF2BTuWSMm5LOEp-3" value="telefono/ varchar 16" style="shape=partialRectangle;connectable=0;fillColor=none;top=0;left=0;bottom=0;right=0;align=left;spacingLeft=6;overflow=hidden;whiteSpace=wrap;html=1;" parent="JmZ1PSF2BTuWSMm5LOEp-1" vertex="1">
          <mxGeometry x="30" width="150" height="30" as="geometry">
            <mxRectangle width="150" height="30" as="alternateBounds" />
          </mxGeometry>
        </mxCell>
        <mxCell id="mw6ZCsg2sIin1n7KSRhl-63" value="" style="shape=tableRow;horizontal=0;startSize=0;swimlaneHead=0;swimlaneBody=0;fillColor=none;collapsible=0;dropTarget=0;points=[[0,0.5],[1,0.5]];portConstraint=eastwest;top=0;left=0;right=0;bottom=0;" parent="lYNnbbYN6PRXDm3UlzL1-1" vertex="1">
          <mxGeometry y="180" width="180" height="30" as="geometry" />
        </mxCell>
        <mxCell id="mw6ZCsg2sIin1n7KSRhl-64" value="" style="shape=partialRectangle;connectable=0;fillColor=none;top=0;left=0;bottom=0;right=0;editable=1;overflow=hidden;whiteSpace=wrap;html=1;" parent="mw6ZCsg2sIin1n7KSRhl-63" vertex="1">
          <mxGeometry width="30" height="30" as="geometry">
            <mxRectangle width="30" height="30" as="alternateBounds" />
          </mxGeometry>
        </mxCell>
        <mxCell id="mw6ZCsg2sIin1n7KSRhl-65" value="fecha_nacimiento/ date" style="shape=partialRectangle;connectable=0;fillColor=none;top=0;left=0;bottom=0;right=0;align=left;spacingLeft=6;overflow=hidden;whiteSpace=wrap;html=1;" parent="mw6ZCsg2sIin1n7KSRhl-63" vertex="1">
          <mxGeometry x="30" width="150" height="30" as="geometry">
            <mxRectangle width="150" height="30" as="alternateBounds" />
          </mxGeometry>
        </mxCell>
        <mxCell id="mw6ZCsg2sIin1n7KSRhl-66" value="" style="shape=tableRow;horizontal=0;startSize=0;swimlaneHead=0;swimlaneBody=0;fillColor=none;collapsible=0;dropTarget=0;points=[[0,0.5],[1,0.5]];portConstraint=eastwest;top=0;left=0;right=0;bottom=0;" parent="lYNnbbYN6PRXDm3UlzL1-1" vertex="1">
          <mxGeometry y="210" width="180" height="30" as="geometry" />
        </mxCell>
        <mxCell id="mw6ZCsg2sIin1n7KSRhl-67" value="" style="shape=partialRectangle;connectable=0;fillColor=none;top=0;left=0;bottom=0;right=0;editable=1;overflow=hidden;whiteSpace=wrap;html=1;" parent="mw6ZCsg2sIin1n7KSRhl-66" vertex="1">
          <mxGeometry width="30" height="30" as="geometry">
            <mxRectangle width="30" height="30" as="alternateBounds" />
          </mxGeometry>
        </mxCell>
        <mxCell id="mw6ZCsg2sIin1n7KSRhl-68" value="ciudad/ varchar 12" style="shape=partialRectangle;connectable=0;fillColor=none;top=0;left=0;bottom=0;right=0;align=left;spacingLeft=6;overflow=hidden;whiteSpace=wrap;html=1;" parent="mw6ZCsg2sIin1n7KSRhl-66" vertex="1">
          <mxGeometry x="30" width="150" height="30" as="geometry">
            <mxRectangle width="150" height="30" as="alternateBounds" />
          </mxGeometry>
        </mxCell>
        <mxCell id="lYNnbbYN6PRXDm3UlzL1-30" value="Empleador" style="shape=table;startSize=30;container=1;collapsible=1;childLayout=tableLayout;fixedRows=1;rowLines=0;fontStyle=1;align=center;resizeLast=1;html=1;" parent="1" vertex="1">
          <mxGeometry x="370" y="130" width="180" height="180" as="geometry" />
        </mxCell>
        <mxCell id="lYNnbbYN6PRXDm3UlzL1-31" value="" style="shape=tableRow;horizontal=0;startSize=0;swimlaneHead=0;swimlaneBody=0;fillColor=none;collapsible=0;dropTarget=0;points=[[0,0.5],[1,0.5]];portConstraint=eastwest;top=0;left=0;right=0;bottom=1;" parent="lYNnbbYN6PRXDm3UlzL1-30" vertex="1">
          <mxGeometry y="30" width="180" height="30" as="geometry" />
        </mxCell>
        <mxCell id="lYNnbbYN6PRXDm3UlzL1-32" value="PK" style="shape=partialRectangle;connectable=0;fillColor=none;top=0;left=0;bottom=0;right=0;fontStyle=1;overflow=hidden;whiteSpace=wrap;html=1;" parent="lYNnbbYN6PRXDm3UlzL1-31" vertex="1">
          <mxGeometry width="30" height="30" as="geometry">
            <mxRectangle width="30" height="30" as="alternateBounds" />
          </mxGeometry>
        </mxCell>
        <mxCell id="lYNnbbYN6PRXDm3UlzL1-33" value="cedula/ varchar 12" style="shape=partialRectangle;connectable=0;fillColor=none;top=0;left=0;bottom=0;right=0;align=left;spacingLeft=6;fontStyle=5;overflow=hidden;whiteSpace=wrap;html=1;" parent="lYNnbbYN6PRXDm3UlzL1-31" vertex="1">
          <mxGeometry x="30" width="150" height="30" as="geometry">
            <mxRectangle width="150" height="30" as="alternateBounds" />
          </mxGeometry>
        </mxCell>
        <mxCell id="lYNnbbYN6PRXDm3UlzL1-34" value="" style="shape=tableRow;horizontal=0;startSize=0;swimlaneHead=0;swimlaneBody=0;fillColor=none;collapsible=0;dropTarget=0;points=[[0,0.5],[1,0.5]];portConstraint=eastwest;top=0;left=0;right=0;bottom=0;" parent="lYNnbbYN6PRXDm3UlzL1-30" vertex="1">
          <mxGeometry y="60" width="180" height="30" as="geometry" />
        </mxCell>
        <mxCell id="lYNnbbYN6PRXDm3UlzL1-35" value="" style="shape=partialRectangle;connectable=0;fillColor=none;top=0;left=0;bottom=0;right=0;editable=1;overflow=hidden;whiteSpace=wrap;html=1;" parent="lYNnbbYN6PRXDm3UlzL1-34" vertex="1">
          <mxGeometry width="30" height="30" as="geometry">
            <mxRectangle width="30" height="30" as="alternateBounds" />
          </mxGeometry>
        </mxCell>
        <mxCell id="lYNnbbYN6PRXDm3UlzL1-36" value="nombre/ varchar 12" style="shape=partialRectangle;connectable=0;fillColor=none;top=0;left=0;bottom=0;right=0;align=left;spacingLeft=6;overflow=hidden;whiteSpace=wrap;html=1;" parent="lYNnbbYN6PRXDm3UlzL1-34" vertex="1">
          <mxGeometry x="30" width="150" height="30" as="geometry">
            <mxRectangle width="150" height="30" as="alternateBounds" />
          </mxGeometry>
        </mxCell>
        <mxCell id="lYNnbbYN6PRXDm3UlzL1-37" value="" style="shape=tableRow;horizontal=0;startSize=0;swimlaneHead=0;swimlaneBody=0;fillColor=none;collapsible=0;dropTarget=0;points=[[0,0.5],[1,0.5]];portConstraint=eastwest;top=0;left=0;right=0;bottom=0;" parent="lYNnbbYN6PRXDm3UlzL1-30" vertex="1">
          <mxGeometry y="90" width="180" height="30" as="geometry" />
        </mxCell>
        <mxCell id="lYNnbbYN6PRXDm3UlzL1-38" value="" style="shape=partialRectangle;connectable=0;fillColor=none;top=0;left=0;bottom=0;right=0;editable=1;overflow=hidden;whiteSpace=wrap;html=1;" parent="lYNnbbYN6PRXDm3UlzL1-37" vertex="1">
          <mxGeometry width="30" height="30" as="geometry">
            <mxRectangle width="30" height="30" as="alternateBounds" />
          </mxGeometry>
        </mxCell>
        <mxCell id="lYNnbbYN6PRXDm3UlzL1-39" value="contraseña/ varchar 12" style="shape=partialRectangle;connectable=0;fillColor=none;top=0;left=0;bottom=0;right=0;align=left;spacingLeft=6;overflow=hidden;whiteSpace=wrap;html=1;" parent="lYNnbbYN6PRXDm3UlzL1-37" vertex="1">
          <mxGeometry x="30" width="150" height="30" as="geometry">
            <mxRectangle width="150" height="30" as="alternateBounds" />
          </mxGeometry>
        </mxCell>
        <mxCell id="lYNnbbYN6PRXDm3UlzL1-40" value="" style="shape=tableRow;horizontal=0;startSize=0;swimlaneHead=0;swimlaneBody=0;fillColor=none;collapsible=0;dropTarget=0;points=[[0,0.5],[1,0.5]];portConstraint=eastwest;top=0;left=0;right=0;bottom=0;" parent="lYNnbbYN6PRXDm3UlzL1-30" vertex="1">
          <mxGeometry y="120" width="180" height="30" as="geometry" />
        </mxCell>
        <mxCell id="lYNnbbYN6PRXDm3UlzL1-41" value="" style="shape=partialRectangle;connectable=0;fillColor=none;top=0;left=0;bottom=0;right=0;editable=1;overflow=hidden;whiteSpace=wrap;html=1;" parent="lYNnbbYN6PRXDm3UlzL1-40" vertex="1">
          <mxGeometry width="30" height="30" as="geometry">
            <mxRectangle width="30" height="30" as="alternateBounds" />
          </mxGeometry>
        </mxCell>
        <mxCell id="lYNnbbYN6PRXDm3UlzL1-42" value="correo/ varchar 50" style="shape=partialRectangle;connectable=0;fillColor=none;top=0;left=0;bottom=0;right=0;align=left;spacingLeft=6;overflow=hidden;whiteSpace=wrap;html=1;" parent="lYNnbbYN6PRXDm3UlzL1-40" vertex="1">
          <mxGeometry x="30" width="150" height="30" as="geometry">
            <mxRectangle width="150" height="30" as="alternateBounds" />
          </mxGeometry>
        </mxCell>
        <mxCell id="wf6ypoYj__s2kZzm4DJX-27" value="" style="shape=tableRow;horizontal=0;startSize=0;swimlaneHead=0;swimlaneBody=0;fillColor=none;collapsible=0;dropTarget=0;points=[[0,0.5],[1,0.5]];portConstraint=eastwest;top=0;left=0;right=0;bottom=0;" parent="lYNnbbYN6PRXDm3UlzL1-30" vertex="1">
          <mxGeometry y="150" width="180" height="30" as="geometry" />
        </mxCell>
        <mxCell id="wf6ypoYj__s2kZzm4DJX-28" value="" style="shape=partialRectangle;connectable=0;fillColor=none;top=0;left=0;bottom=0;right=0;editable=1;overflow=hidden;whiteSpace=wrap;html=1;" parent="wf6ypoYj__s2kZzm4DJX-27" vertex="1">
          <mxGeometry width="30" height="30" as="geometry">
            <mxRectangle width="30" height="30" as="alternateBounds" />
          </mxGeometry>
        </mxCell>
        <mxCell id="wf6ypoYj__s2kZzm4DJX-29" value="telefono/ varchar 16" style="shape=partialRectangle;connectable=0;fillColor=none;top=0;left=0;bottom=0;right=0;align=left;spacingLeft=6;overflow=hidden;whiteSpace=wrap;html=1;" parent="wf6ypoYj__s2kZzm4DJX-27" vertex="1">
          <mxGeometry x="30" width="150" height="30" as="geometry">
            <mxRectangle width="150" height="30" as="alternateBounds" />
          </mxGeometry>
        </mxCell>
        <mxCell id="lYNnbbYN6PRXDm3UlzL1-43" value="Empresa" style="shape=table;startSize=30;container=1;collapsible=1;childLayout=tableLayout;fixedRows=1;rowLines=0;fontStyle=1;align=center;resizeLast=1;html=1;" parent="1" vertex="1">
          <mxGeometry x="650" y="-120" width="180" height="90" as="geometry" />
        </mxCell>
        <mxCell id="lYNnbbYN6PRXDm3UlzL1-44" value="" style="shape=tableRow;horizontal=0;startSize=0;swimlaneHead=0;swimlaneBody=0;fillColor=none;collapsible=0;dropTarget=0;points=[[0,0.5],[1,0.5]];portConstraint=eastwest;top=0;left=0;right=0;bottom=1;" parent="lYNnbbYN6PRXDm3UlzL1-43" vertex="1">
          <mxGeometry y="30" width="180" height="30" as="geometry" />
        </mxCell>
        <mxCell id="lYNnbbYN6PRXDm3UlzL1-45" value="PK" style="shape=partialRectangle;connectable=0;fillColor=none;top=0;left=0;bottom=0;right=0;fontStyle=1;overflow=hidden;whiteSpace=wrap;html=1;" parent="lYNnbbYN6PRXDm3UlzL1-44" vertex="1">
          <mxGeometry width="30" height="30" as="geometry">
            <mxRectangle width="30" height="30" as="alternateBounds" />
          </mxGeometry>
        </mxCell>
        <mxCell id="lYNnbbYN6PRXDm3UlzL1-46" value="nit / varchar13" style="shape=partialRectangle;connectable=0;fillColor=none;top=0;left=0;bottom=0;right=0;align=left;spacingLeft=6;fontStyle=5;overflow=hidden;whiteSpace=wrap;html=1;" parent="lYNnbbYN6PRXDm3UlzL1-44" vertex="1">
          <mxGeometry x="30" width="150" height="30" as="geometry">
            <mxRectangle width="150" height="30" as="alternateBounds" />
          </mxGeometry>
        </mxCell>
        <mxCell id="lYNnbbYN6PRXDm3UlzL1-47" value="" style="shape=tableRow;horizontal=0;startSize=0;swimlaneHead=0;swimlaneBody=0;fillColor=none;collapsible=0;dropTarget=0;points=[[0,0.5],[1,0.5]];portConstraint=eastwest;top=0;left=0;right=0;bottom=0;" parent="lYNnbbYN6PRXDm3UlzL1-43" vertex="1">
          <mxGeometry y="60" width="180" height="30" as="geometry" />
        </mxCell>
        <mxCell id="lYNnbbYN6PRXDm3UlzL1-48" value="" style="shape=partialRectangle;connectable=0;fillColor=none;top=0;left=0;bottom=0;right=0;editable=1;overflow=hidden;whiteSpace=wrap;html=1;" parent="lYNnbbYN6PRXDm3UlzL1-47" vertex="1">
          <mxGeometry width="30" height="30" as="geometry">
            <mxRectangle width="30" height="30" as="alternateBounds" />
          </mxGeometry>
        </mxCell>
        <mxCell id="lYNnbbYN6PRXDm3UlzL1-49" value="nombre / varchar 20" style="shape=partialRectangle;connectable=0;fillColor=none;top=0;left=0;bottom=0;right=0;align=left;spacingLeft=6;overflow=hidden;whiteSpace=wrap;html=1;" parent="lYNnbbYN6PRXDm3UlzL1-47" vertex="1">
          <mxGeometry x="30" width="150" height="30" as="geometry">
            <mxRectangle width="150" height="30" as="alternateBounds" />
          </mxGeometry>
        </mxCell>
        <mxCell id="lYNnbbYN6PRXDm3UlzL1-70" style="edgeStyle=orthogonalEdgeStyle;rounded=0;orthogonalLoop=1;jettySize=auto;html=1;entryX=0.75;entryY=0;entryDx=0;entryDy=0;exitX=0;exitY=0.5;exitDx=0;exitDy=0;" parent="1" source="lYNnbbYN6PRXDm3UlzL1-57" target="lYNnbbYN6PRXDm3UlzL1-30" edge="1">
          <mxGeometry relative="1" as="geometry" />
        </mxCell>
        <mxCell id="lYNnbbYN6PRXDm3UlzL1-56" value="Empleador_en_empresa" style="shape=table;startSize=30;container=1;collapsible=1;childLayout=tableLayout;fixedRows=1;rowLines=0;fontStyle=1;align=center;resizeLast=1;html=1;whiteSpace=wrap;" parent="1" vertex="1">
          <mxGeometry x="650" y="20" width="180" height="90" as="geometry" />
        </mxCell>
        <mxCell id="lYNnbbYN6PRXDm3UlzL1-57" value="" style="shape=tableRow;horizontal=0;startSize=0;swimlaneHead=0;swimlaneBody=0;fillColor=none;collapsible=0;dropTarget=0;points=[[0,0.5],[1,0.5]];portConstraint=eastwest;top=0;left=0;right=0;bottom=0;html=1;" parent="lYNnbbYN6PRXDm3UlzL1-56" vertex="1">
          <mxGeometry y="30" width="180" height="30" as="geometry" />
        </mxCell>
        <mxCell id="lYNnbbYN6PRXDm3UlzL1-58" value="PK,FK1" style="shape=partialRectangle;connectable=0;fillColor=none;top=0;left=0;bottom=0;right=0;fontStyle=1;overflow=hidden;html=1;whiteSpace=wrap;" parent="lYNnbbYN6PRXDm3UlzL1-57" vertex="1">
          <mxGeometry width="60" height="30" as="geometry">
            <mxRectangle width="60" height="30" as="alternateBounds" />
          </mxGeometry>
        </mxCell>
        <mxCell id="lYNnbbYN6PRXDm3UlzL1-59" value="cedula_empleador" style="shape=partialRectangle;connectable=0;fillColor=none;top=0;left=0;bottom=0;right=0;align=left;spacingLeft=6;fontStyle=5;overflow=hidden;html=1;whiteSpace=wrap;" parent="lYNnbbYN6PRXDm3UlzL1-57" vertex="1">
          <mxGeometry x="60" width="120" height="30" as="geometry">
            <mxRectangle width="120" height="30" as="alternateBounds" />
          </mxGeometry>
        </mxCell>
        <mxCell id="lYNnbbYN6PRXDm3UlzL1-60" value="" style="shape=tableRow;horizontal=0;startSize=0;swimlaneHead=0;swimlaneBody=0;fillColor=none;collapsible=0;dropTarget=0;points=[[0,0.5],[1,0.5]];portConstraint=eastwest;top=0;left=0;right=0;bottom=1;html=1;" parent="lYNnbbYN6PRXDm3UlzL1-56" vertex="1">
          <mxGeometry y="60" width="180" height="30" as="geometry" />
        </mxCell>
        <mxCell id="lYNnbbYN6PRXDm3UlzL1-61" value="PK,FK2" style="shape=partialRectangle;connectable=0;fillColor=none;top=0;left=0;bottom=0;right=0;fontStyle=1;overflow=hidden;html=1;whiteSpace=wrap;" parent="lYNnbbYN6PRXDm3UlzL1-60" vertex="1">
          <mxGeometry width="60" height="30" as="geometry">
            <mxRectangle width="60" height="30" as="alternateBounds" />
          </mxGeometry>
        </mxCell>
        <mxCell id="lYNnbbYN6PRXDm3UlzL1-62" value="nit_empresa" style="shape=partialRectangle;connectable=0;fillColor=none;top=0;left=0;bottom=0;right=0;align=left;spacingLeft=6;fontStyle=5;overflow=hidden;html=1;whiteSpace=wrap;" parent="lYNnbbYN6PRXDm3UlzL1-60" vertex="1">
          <mxGeometry x="60" width="120" height="30" as="geometry">
            <mxRectangle width="120" height="30" as="alternateBounds" />
          </mxGeometry>
        </mxCell>
        <mxCell id="mw6ZCsg2sIin1n7KSRhl-32" style="edgeStyle=orthogonalEdgeStyle;rounded=0;orthogonalLoop=1;jettySize=auto;html=1;entryX=0;entryY=0;entryDx=0;entryDy=0;" parent="1" source="lYNnbbYN6PRXDm3UlzL1-84" target="lYNnbbYN6PRXDm3UlzL1-1" edge="1">
          <mxGeometry relative="1" as="geometry">
            <Array as="points">
              <mxPoint x="30" y="-70" />
              <mxPoint x="30" y="130" />
            </Array>
          </mxGeometry>
        </mxCell>
        <mxCell id="lYNnbbYN6PRXDm3UlzL1-84" value="Informacion_Extra" style="shape=table;startSize=30;container=1;collapsible=1;childLayout=tableLayout;fixedRows=1;rowLines=0;fontStyle=1;align=center;resizeLast=1;html=1;whiteSpace=wrap;" parent="1" vertex="1">
          <mxGeometry x="-240" y="-150" width="180" height="150" as="geometry" />
        </mxCell>
        <mxCell id="lYNnbbYN6PRXDm3UlzL1-85" value="" style="shape=tableRow;horizontal=0;startSize=0;swimlaneHead=0;swimlaneBody=0;fillColor=none;collapsible=0;dropTarget=0;points=[[0,0.5],[1,0.5]];portConstraint=eastwest;top=0;left=0;right=0;bottom=0;html=1;" parent="lYNnbbYN6PRXDm3UlzL1-84" vertex="1">
          <mxGeometry y="30" width="180" height="30" as="geometry" />
        </mxCell>
        <mxCell id="lYNnbbYN6PRXDm3UlzL1-86" value="PK,FK1" style="shape=partialRectangle;connectable=0;fillColor=none;top=0;left=0;bottom=0;right=0;fontStyle=1;overflow=hidden;html=1;whiteSpace=wrap;" parent="lYNnbbYN6PRXDm3UlzL1-85" vertex="1">
          <mxGeometry width="60" height="30" as="geometry">
            <mxRectangle width="60" height="30" as="alternateBounds" />
          </mxGeometry>
        </mxCell>
        <mxCell id="lYNnbbYN6PRXDm3UlzL1-87" value="cedula_proveedor/&lt;br&gt;varchar 12" style="shape=partialRectangle;connectable=0;fillColor=none;top=0;left=0;bottom=0;right=0;align=left;spacingLeft=6;fontStyle=5;overflow=hidden;html=1;whiteSpace=wrap;" parent="lYNnbbYN6PRXDm3UlzL1-85" vertex="1">
          <mxGeometry x="60" width="120" height="30" as="geometry">
            <mxRectangle width="120" height="30" as="alternateBounds" />
          </mxGeometry>
        </mxCell>
        <mxCell id="lYNnbbYN6PRXDm3UlzL1-88" value="" style="shape=tableRow;horizontal=0;startSize=0;swimlaneHead=0;swimlaneBody=0;fillColor=none;collapsible=0;dropTarget=0;points=[[0,0.5],[1,0.5]];portConstraint=eastwest;top=0;left=0;right=0;bottom=1;html=1;" parent="lYNnbbYN6PRXDm3UlzL1-84" vertex="1">
          <mxGeometry y="60" width="180" height="30" as="geometry" />
        </mxCell>
        <mxCell id="lYNnbbYN6PRXDm3UlzL1-89" value="PK" style="shape=partialRectangle;connectable=0;fillColor=none;top=0;left=0;bottom=0;right=0;fontStyle=1;overflow=hidden;html=1;whiteSpace=wrap;" parent="lYNnbbYN6PRXDm3UlzL1-88" vertex="1">
          <mxGeometry width="60" height="30" as="geometry">
            <mxRectangle width="60" height="30" as="alternateBounds" />
          </mxGeometry>
        </mxCell>
        <mxCell id="lYNnbbYN6PRXDm3UlzL1-90" value="id/ smallint" style="shape=partialRectangle;connectable=0;fillColor=none;top=0;left=0;bottom=0;right=0;align=left;spacingLeft=6;fontStyle=5;overflow=hidden;html=1;whiteSpace=wrap;" parent="lYNnbbYN6PRXDm3UlzL1-88" vertex="1">
          <mxGeometry x="60" width="120" height="30" as="geometry">
            <mxRectangle width="120" height="30" as="alternateBounds" />
          </mxGeometry>
        </mxCell>
        <mxCell id="lYNnbbYN6PRXDm3UlzL1-91" value="" style="shape=tableRow;horizontal=0;startSize=0;swimlaneHead=0;swimlaneBody=0;fillColor=none;collapsible=0;dropTarget=0;points=[[0,0.5],[1,0.5]];portConstraint=eastwest;top=0;left=0;right=0;bottom=0;html=1;" parent="lYNnbbYN6PRXDm3UlzL1-84" vertex="1">
          <mxGeometry y="90" width="180" height="30" as="geometry" />
        </mxCell>
        <mxCell id="lYNnbbYN6PRXDm3UlzL1-92" value="" style="shape=partialRectangle;connectable=0;fillColor=none;top=0;left=0;bottom=0;right=0;editable=1;overflow=hidden;html=1;whiteSpace=wrap;" parent="lYNnbbYN6PRXDm3UlzL1-91" vertex="1">
          <mxGeometry width="60" height="30" as="geometry">
            <mxRectangle width="60" height="30" as="alternateBounds" />
          </mxGeometry>
        </mxCell>
        <mxCell id="lYNnbbYN6PRXDm3UlzL1-93" value="nombre/&lt;br&gt;varchar25" style="shape=partialRectangle;connectable=0;fillColor=none;top=0;left=0;bottom=0;right=0;align=left;spacingLeft=6;overflow=hidden;html=1;whiteSpace=wrap;" parent="lYNnbbYN6PRXDm3UlzL1-91" vertex="1">
          <mxGeometry x="60" width="120" height="30" as="geometry">
            <mxRectangle width="120" height="30" as="alternateBounds" />
          </mxGeometry>
        </mxCell>
        <mxCell id="M9iXuyO6lLxRYCzt662s-1" value="" style="shape=tableRow;horizontal=0;startSize=0;swimlaneHead=0;swimlaneBody=0;fillColor=none;collapsible=0;dropTarget=0;points=[[0,0.5],[1,0.5]];portConstraint=eastwest;top=0;left=0;right=0;bottom=0;html=1;" parent="lYNnbbYN6PRXDm3UlzL1-84" vertex="1">
          <mxGeometry y="120" width="180" height="30" as="geometry" />
        </mxCell>
        <mxCell id="M9iXuyO6lLxRYCzt662s-2" value="" style="shape=partialRectangle;connectable=0;fillColor=none;top=0;left=0;bottom=0;right=0;editable=1;overflow=hidden;html=1;whiteSpace=wrap;" parent="M9iXuyO6lLxRYCzt662s-1" vertex="1">
          <mxGeometry width="60" height="30" as="geometry">
            <mxRectangle width="60" height="30" as="alternateBounds" />
          </mxGeometry>
        </mxCell>
        <mxCell id="M9iXuyO6lLxRYCzt662s-3" value="descripcion/ varchar 150" style="shape=partialRectangle;connectable=0;fillColor=none;top=0;left=0;bottom=0;right=0;align=left;spacingLeft=6;overflow=hidden;html=1;whiteSpace=wrap;" parent="M9iXuyO6lLxRYCzt662s-1" vertex="1">
          <mxGeometry x="60" width="120" height="30" as="geometry">
            <mxRectangle width="120" height="30" as="alternateBounds" />
          </mxGeometry>
        </mxCell>
        <mxCell id="0O9wjI1nSyGIc69ZhKmy-72" style="edgeStyle=orthogonalEdgeStyle;rounded=0;orthogonalLoop=1;jettySize=auto;html=1;entryX=0.5;entryY=0;entryDx=0;entryDy=0;" parent="1" source="lYNnbbYN6PRXDm3UlzL1-98" target="EUtWTuzQYgCr-teSh7SM-80" edge="1">
          <mxGeometry relative="1" as="geometry">
            <mxPoint x="-499.9999999999999" y="360" as="targetPoint" />
          </mxGeometry>
        </mxCell>
        <mxCell id="lYNnbbYN6PRXDm3UlzL1-98" value="Certificado" style="shape=table;startSize=30;container=1;collapsible=1;childLayout=tableLayout;fixedRows=1;rowLines=0;fontStyle=1;align=center;resizeLast=1;html=1;" parent="1" vertex="1">
          <mxGeometry x="-640" y="130" width="180" height="150" as="geometry" />
        </mxCell>
        <mxCell id="lYNnbbYN6PRXDm3UlzL1-99" value="" style="shape=tableRow;horizontal=0;startSize=0;swimlaneHead=0;swimlaneBody=0;fillColor=none;collapsible=0;dropTarget=0;points=[[0,0.5],[1,0.5]];portConstraint=eastwest;top=0;left=0;right=0;bottom=1;" parent="lYNnbbYN6PRXDm3UlzL1-98" vertex="1">
          <mxGeometry y="30" width="180" height="30" as="geometry" />
        </mxCell>
        <mxCell id="lYNnbbYN6PRXDm3UlzL1-100" value="PK" style="shape=partialRectangle;connectable=0;fillColor=none;top=0;left=0;bottom=0;right=0;fontStyle=1;overflow=hidden;whiteSpace=wrap;html=1;" parent="lYNnbbYN6PRXDm3UlzL1-99" vertex="1">
          <mxGeometry width="30" height="30" as="geometry">
            <mxRectangle width="30" height="30" as="alternateBounds" />
          </mxGeometry>
        </mxCell>
        <mxCell id="lYNnbbYN6PRXDm3UlzL1-101" value="id/ int" style="shape=partialRectangle;connectable=0;fillColor=none;top=0;left=0;bottom=0;right=0;align=left;spacingLeft=6;fontStyle=5;overflow=hidden;whiteSpace=wrap;html=1;" parent="lYNnbbYN6PRXDm3UlzL1-99" vertex="1">
          <mxGeometry x="30" width="150" height="30" as="geometry">
            <mxRectangle width="150" height="30" as="alternateBounds" />
          </mxGeometry>
        </mxCell>
        <mxCell id="EUtWTuzQYgCr-teSh7SM-77" value="" style="shape=tableRow;horizontal=0;startSize=0;swimlaneHead=0;swimlaneBody=0;fillColor=none;collapsible=0;dropTarget=0;points=[[0,0.5],[1,0.5]];portConstraint=eastwest;top=0;left=0;right=0;bottom=0;" parent="lYNnbbYN6PRXDm3UlzL1-98" vertex="1">
          <mxGeometry y="60" width="180" height="30" as="geometry" />
        </mxCell>
        <mxCell id="EUtWTuzQYgCr-teSh7SM-78" value="" style="shape=partialRectangle;connectable=0;fillColor=none;top=0;left=0;bottom=0;right=0;editable=1;overflow=hidden;whiteSpace=wrap;html=1;" parent="EUtWTuzQYgCr-teSh7SM-77" vertex="1">
          <mxGeometry width="30" height="30" as="geometry">
            <mxRectangle width="30" height="30" as="alternateBounds" />
          </mxGeometry>
        </mxCell>
        <mxCell id="EUtWTuzQYgCr-teSh7SM-79" value="nombre/ varchar 25" style="shape=partialRectangle;connectable=0;fillColor=none;top=0;left=0;bottom=0;right=0;align=left;spacingLeft=6;overflow=hidden;whiteSpace=wrap;html=1;" parent="EUtWTuzQYgCr-teSh7SM-77" vertex="1">
          <mxGeometry x="30" width="150" height="30" as="geometry">
            <mxRectangle width="150" height="30" as="alternateBounds" />
          </mxGeometry>
        </mxCell>
        <mxCell id="mw6ZCsg2sIin1n7KSRhl-1" value="" style="shape=tableRow;horizontal=0;startSize=0;swimlaneHead=0;swimlaneBody=0;fillColor=none;collapsible=0;dropTarget=0;points=[[0,0.5],[1,0.5]];portConstraint=eastwest;top=0;left=0;right=0;bottom=0;" parent="lYNnbbYN6PRXDm3UlzL1-98" vertex="1">
          <mxGeometry y="90" width="180" height="30" as="geometry" />
        </mxCell>
        <mxCell id="mw6ZCsg2sIin1n7KSRhl-2" value="" style="shape=partialRectangle;connectable=0;fillColor=none;top=0;left=0;bottom=0;right=0;editable=1;overflow=hidden;whiteSpace=wrap;html=1;" parent="mw6ZCsg2sIin1n7KSRhl-1" vertex="1">
          <mxGeometry width="30" height="30" as="geometry">
            <mxRectangle width="30" height="30" as="alternateBounds" />
          </mxGeometry>
        </mxCell>
        <mxCell id="mw6ZCsg2sIin1n7KSRhl-3" value="entidad_que_certifica/ varchar 15" style="shape=partialRectangle;connectable=0;fillColor=none;top=0;left=0;bottom=0;right=0;align=left;spacingLeft=6;overflow=hidden;whiteSpace=wrap;html=1;" parent="mw6ZCsg2sIin1n7KSRhl-1" vertex="1">
          <mxGeometry x="30" width="150" height="30" as="geometry">
            <mxRectangle width="150" height="30" as="alternateBounds" />
          </mxGeometry>
        </mxCell>
        <mxCell id="lYNnbbYN6PRXDm3UlzL1-108" value="" style="shape=tableRow;horizontal=0;startSize=0;swimlaneHead=0;swimlaneBody=0;fillColor=none;collapsible=0;dropTarget=0;points=[[0,0.5],[1,0.5]];portConstraint=eastwest;top=0;left=0;right=0;bottom=0;" parent="lYNnbbYN6PRXDm3UlzL1-98" vertex="1">
          <mxGeometry y="120" width="180" height="30" as="geometry" />
        </mxCell>
        <mxCell id="lYNnbbYN6PRXDm3UlzL1-109" value="&lt;b&gt;FK&lt;/b&gt;" style="shape=partialRectangle;connectable=0;fillColor=none;top=0;left=0;bottom=0;right=0;editable=1;overflow=hidden;whiteSpace=wrap;html=1;" parent="lYNnbbYN6PRXDm3UlzL1-108" vertex="1">
          <mxGeometry width="30" height="30" as="geometry">
            <mxRectangle width="30" height="30" as="alternateBounds" />
          </mxGeometry>
        </mxCell>
        <mxCell id="lYNnbbYN6PRXDm3UlzL1-110" value="tipo" style="shape=partialRectangle;connectable=0;fillColor=none;top=0;left=0;bottom=0;right=0;align=left;spacingLeft=6;overflow=hidden;whiteSpace=wrap;html=1;" parent="lYNnbbYN6PRXDm3UlzL1-108" vertex="1">
          <mxGeometry x="30" width="150" height="30" as="geometry">
            <mxRectangle width="150" height="30" as="alternateBounds" />
          </mxGeometry>
        </mxCell>
        <mxCell id="lYNnbbYN6PRXDm3UlzL1-111" value="Certificados de Proveedor" style="shape=table;startSize=30;container=1;collapsible=1;childLayout=tableLayout;fixedRows=1;rowLines=0;fontStyle=1;align=center;resizeLast=1;html=1;whiteSpace=wrap;" parent="1" vertex="1">
          <mxGeometry x="-340" y="130" width="180" height="120" as="geometry" />
        </mxCell>
        <mxCell id="lYNnbbYN6PRXDm3UlzL1-112" value="" style="shape=tableRow;horizontal=0;startSize=0;swimlaneHead=0;swimlaneBody=0;fillColor=none;collapsible=0;dropTarget=0;points=[[0,0.5],[1,0.5]];portConstraint=eastwest;top=0;left=0;right=0;bottom=0;html=1;" parent="lYNnbbYN6PRXDm3UlzL1-111" vertex="1">
          <mxGeometry y="30" width="180" height="30" as="geometry" />
        </mxCell>
        <mxCell id="lYNnbbYN6PRXDm3UlzL1-113" value="PK,FK1" style="shape=partialRectangle;connectable=0;fillColor=none;top=0;left=0;bottom=0;right=0;fontStyle=1;overflow=hidden;html=1;whiteSpace=wrap;" parent="lYNnbbYN6PRXDm3UlzL1-112" vertex="1">
          <mxGeometry width="60" height="30" as="geometry">
            <mxRectangle width="60" height="30" as="alternateBounds" />
          </mxGeometry>
        </mxCell>
        <mxCell id="lYNnbbYN6PRXDm3UlzL1-114" value="cedula_proveedor" style="shape=partialRectangle;connectable=0;fillColor=none;top=0;left=0;bottom=0;right=0;align=left;spacingLeft=6;fontStyle=5;overflow=hidden;html=1;whiteSpace=wrap;" parent="lYNnbbYN6PRXDm3UlzL1-112" vertex="1">
          <mxGeometry x="60" width="120" height="30" as="geometry">
            <mxRectangle width="120" height="30" as="alternateBounds" />
          </mxGeometry>
        </mxCell>
        <mxCell id="lYNnbbYN6PRXDm3UlzL1-115" value="" style="shape=tableRow;horizontal=0;startSize=0;swimlaneHead=0;swimlaneBody=0;fillColor=none;collapsible=0;dropTarget=0;points=[[0,0.5],[1,0.5]];portConstraint=eastwest;top=0;left=0;right=0;bottom=1;html=1;" parent="lYNnbbYN6PRXDm3UlzL1-111" vertex="1">
          <mxGeometry y="60" width="180" height="30" as="geometry" />
        </mxCell>
        <mxCell id="lYNnbbYN6PRXDm3UlzL1-116" value="PK,FK2" style="shape=partialRectangle;connectable=0;fillColor=none;top=0;left=0;bottom=0;right=0;fontStyle=1;overflow=hidden;html=1;whiteSpace=wrap;" parent="lYNnbbYN6PRXDm3UlzL1-115" vertex="1">
          <mxGeometry width="60" height="30" as="geometry">
            <mxRectangle width="60" height="30" as="alternateBounds" />
          </mxGeometry>
        </mxCell>
        <mxCell id="lYNnbbYN6PRXDm3UlzL1-117" value="id_certificado" style="shape=partialRectangle;connectable=0;fillColor=none;top=0;left=0;bottom=0;right=0;align=left;spacingLeft=6;fontStyle=5;overflow=hidden;html=1;whiteSpace=wrap;" parent="lYNnbbYN6PRXDm3UlzL1-115" vertex="1">
          <mxGeometry x="60" width="120" height="30" as="geometry">
            <mxRectangle width="120" height="30" as="alternateBounds" />
          </mxGeometry>
        </mxCell>
        <mxCell id="lYNnbbYN6PRXDm3UlzL1-118" value="" style="shape=tableRow;horizontal=0;startSize=0;swimlaneHead=0;swimlaneBody=0;fillColor=none;collapsible=0;dropTarget=0;points=[[0,0.5],[1,0.5]];portConstraint=eastwest;top=0;left=0;right=0;bottom=0;html=1;" parent="lYNnbbYN6PRXDm3UlzL1-111" vertex="1">
          <mxGeometry y="90" width="180" height="30" as="geometry" />
        </mxCell>
        <mxCell id="lYNnbbYN6PRXDm3UlzL1-119" value="" style="shape=partialRectangle;connectable=0;fillColor=none;top=0;left=0;bottom=0;right=0;editable=1;overflow=hidden;html=1;whiteSpace=wrap;" parent="lYNnbbYN6PRXDm3UlzL1-118" vertex="1">
          <mxGeometry width="60" height="30" as="geometry">
            <mxRectangle width="60" height="30" as="alternateBounds" />
          </mxGeometry>
        </mxCell>
        <mxCell id="lYNnbbYN6PRXDm3UlzL1-120" value="fecha_adquisicion/&lt;br&gt;date" style="shape=partialRectangle;connectable=0;fillColor=none;top=0;left=0;bottom=0;right=0;align=left;spacingLeft=6;overflow=hidden;html=1;whiteSpace=wrap;" parent="lYNnbbYN6PRXDm3UlzL1-118" vertex="1">
          <mxGeometry x="60" width="120" height="30" as="geometry">
            <mxRectangle width="120" height="30" as="alternateBounds" />
          </mxGeometry>
        </mxCell>
        <mxCell id="lYNnbbYN6PRXDm3UlzL1-124" style="edgeStyle=orthogonalEdgeStyle;rounded=0;orthogonalLoop=1;jettySize=auto;html=1;" parent="1" source="lYNnbbYN6PRXDm3UlzL1-112" edge="1">
          <mxGeometry relative="1" as="geometry">
            <mxPoint x="120" y="175" as="targetPoint" />
          </mxGeometry>
        </mxCell>
        <mxCell id="lYNnbbYN6PRXDm3UlzL1-125" style="edgeStyle=orthogonalEdgeStyle;rounded=0;orthogonalLoop=1;jettySize=auto;html=1;entryX=1;entryY=0.5;entryDx=0;entryDy=0;exitX=0;exitY=0.5;exitDx=0;exitDy=0;" parent="1" source="lYNnbbYN6PRXDm3UlzL1-112" target="lYNnbbYN6PRXDm3UlzL1-99" edge="1">
          <mxGeometry relative="1" as="geometry" />
        </mxCell>
        <mxCell id="lYNnbbYN6PRXDm3UlzL1-140" value="Servicio" style="shape=table;startSize=30;container=1;collapsible=1;childLayout=tableLayout;fixedRows=1;rowLines=0;fontStyle=1;align=center;resizeLast=1;html=1;" parent="1" vertex="1">
          <mxGeometry x="245" y="520" width="254.99999999999977" height="360" as="geometry" />
        </mxCell>
        <mxCell id="lYNnbbYN6PRXDm3UlzL1-141" value="" style="shape=tableRow;horizontal=0;startSize=0;swimlaneHead=0;swimlaneBody=0;fillColor=none;collapsible=0;dropTarget=0;points=[[0,0.5],[1,0.5]];portConstraint=eastwest;top=0;left=0;right=0;bottom=1;" parent="lYNnbbYN6PRXDm3UlzL1-140" vertex="1">
          <mxGeometry y="30" width="254.99999999999977" height="30" as="geometry" />
        </mxCell>
        <mxCell id="lYNnbbYN6PRXDm3UlzL1-142" value="PK" style="shape=partialRectangle;connectable=0;fillColor=none;top=0;left=0;bottom=0;right=0;fontStyle=1;overflow=hidden;whiteSpace=wrap;html=1;" parent="lYNnbbYN6PRXDm3UlzL1-141" vertex="1">
          <mxGeometry width="35" height="30" as="geometry">
            <mxRectangle width="35" height="30" as="alternateBounds" />
          </mxGeometry>
        </mxCell>
        <mxCell id="lYNnbbYN6PRXDm3UlzL1-143" value="id/ int&amp;nbsp;" style="shape=partialRectangle;connectable=0;fillColor=none;top=0;left=0;bottom=0;right=0;align=left;spacingLeft=6;fontStyle=5;overflow=hidden;whiteSpace=wrap;html=1;" parent="lYNnbbYN6PRXDm3UlzL1-141" vertex="1">
          <mxGeometry x="35" width="219.99999999999977" height="30" as="geometry">
            <mxRectangle width="219.99999999999977" height="30" as="alternateBounds" />
          </mxGeometry>
        </mxCell>
        <mxCell id="lYNnbbYN6PRXDm3UlzL1-153" value="" style="shape=tableRow;horizontal=0;startSize=0;swimlaneHead=0;swimlaneBody=0;fillColor=none;collapsible=0;dropTarget=0;points=[[0,0.5],[1,0.5]];portConstraint=eastwest;top=0;left=0;right=0;bottom=0;" parent="lYNnbbYN6PRXDm3UlzL1-140" vertex="1">
          <mxGeometry y="60" width="254.99999999999977" height="30" as="geometry" />
        </mxCell>
        <mxCell id="lYNnbbYN6PRXDm3UlzL1-154" value="" style="shape=partialRectangle;connectable=0;fillColor=none;top=0;left=0;bottom=0;right=0;editable=1;overflow=hidden;whiteSpace=wrap;html=1;" parent="lYNnbbYN6PRXDm3UlzL1-153" vertex="1">
          <mxGeometry width="35" height="30" as="geometry">
            <mxRectangle width="35" height="30" as="alternateBounds" />
          </mxGeometry>
        </mxCell>
        <mxCell id="lYNnbbYN6PRXDm3UlzL1-155" value="nombre/ varchar 20" style="shape=partialRectangle;connectable=0;fillColor=none;top=0;left=0;bottom=0;right=0;align=left;spacingLeft=6;overflow=hidden;whiteSpace=wrap;html=1;" parent="lYNnbbYN6PRXDm3UlzL1-153" vertex="1">
          <mxGeometry x="35" width="219.99999999999977" height="30" as="geometry">
            <mxRectangle width="219.99999999999977" height="30" as="alternateBounds" />
          </mxGeometry>
        </mxCell>
        <mxCell id="lYNnbbYN6PRXDm3UlzL1-144" value="" style="shape=tableRow;horizontal=0;startSize=0;swimlaneHead=0;swimlaneBody=0;fillColor=none;collapsible=0;dropTarget=0;points=[[0,0.5],[1,0.5]];portConstraint=eastwest;top=0;left=0;right=0;bottom=0;" parent="lYNnbbYN6PRXDm3UlzL1-140" vertex="1">
          <mxGeometry y="90" width="254.99999999999977" height="30" as="geometry" />
        </mxCell>
        <mxCell id="lYNnbbYN6PRXDm3UlzL1-145" value="" style="shape=partialRectangle;connectable=0;fillColor=none;top=0;left=0;bottom=0;right=0;editable=1;overflow=hidden;whiteSpace=wrap;html=1;" parent="lYNnbbYN6PRXDm3UlzL1-144" vertex="1">
          <mxGeometry width="35" height="30" as="geometry">
            <mxRectangle width="35" height="30" as="alternateBounds" />
          </mxGeometry>
        </mxCell>
        <mxCell id="lYNnbbYN6PRXDm3UlzL1-146" value="descripcion /varchar 200" style="shape=partialRectangle;connectable=0;fillColor=none;top=0;left=0;bottom=0;right=0;align=left;spacingLeft=6;overflow=hidden;whiteSpace=wrap;html=1;" parent="lYNnbbYN6PRXDm3UlzL1-144" vertex="1">
          <mxGeometry x="35" width="219.99999999999977" height="30" as="geometry">
            <mxRectangle width="219.99999999999977" height="30" as="alternateBounds" />
          </mxGeometry>
        </mxCell>
        <mxCell id="lYNnbbYN6PRXDm3UlzL1-150" value="" style="shape=tableRow;horizontal=0;startSize=0;swimlaneHead=0;swimlaneBody=0;fillColor=none;collapsible=0;dropTarget=0;points=[[0,0.5],[1,0.5]];portConstraint=eastwest;top=0;left=0;right=0;bottom=0;" parent="lYNnbbYN6PRXDm3UlzL1-140" vertex="1">
          <mxGeometry y="120" width="254.99999999999977" height="30" as="geometry" />
        </mxCell>
        <mxCell id="lYNnbbYN6PRXDm3UlzL1-151" value="" style="shape=partialRectangle;connectable=0;fillColor=none;top=0;left=0;bottom=0;right=0;editable=1;overflow=hidden;whiteSpace=wrap;html=1;" parent="lYNnbbYN6PRXDm3UlzL1-150" vertex="1">
          <mxGeometry width="35" height="30" as="geometry">
            <mxRectangle width="35" height="30" as="alternateBounds" />
          </mxGeometry>
        </mxCell>
        <mxCell id="lYNnbbYN6PRXDm3UlzL1-152" value="pago/ int" style="shape=partialRectangle;connectable=0;fillColor=none;top=0;left=0;bottom=0;right=0;align=left;spacingLeft=6;overflow=hidden;whiteSpace=wrap;html=1;" parent="lYNnbbYN6PRXDm3UlzL1-150" vertex="1">
          <mxGeometry x="35" width="219.99999999999977" height="30" as="geometry">
            <mxRectangle width="219.99999999999977" height="30" as="alternateBounds" />
          </mxGeometry>
        </mxCell>
        <mxCell id="lYNnbbYN6PRXDm3UlzL1-172" value="" style="shape=tableRow;horizontal=0;startSize=0;swimlaneHead=0;swimlaneBody=0;fillColor=none;collapsible=0;dropTarget=0;points=[[0,0.5],[1,0.5]];portConstraint=eastwest;top=0;left=0;right=0;bottom=0;" parent="lYNnbbYN6PRXDm3UlzL1-140" vertex="1">
          <mxGeometry y="150" width="254.99999999999977" height="30" as="geometry" />
        </mxCell>
        <mxCell id="lYNnbbYN6PRXDm3UlzL1-173" value="" style="shape=partialRectangle;connectable=0;fillColor=none;top=0;left=0;bottom=0;right=0;editable=1;overflow=hidden;whiteSpace=wrap;html=1;" parent="lYNnbbYN6PRXDm3UlzL1-172" vertex="1">
          <mxGeometry width="35" height="30" as="geometry">
            <mxRectangle width="35" height="30" as="alternateBounds" />
          </mxGeometry>
        </mxCell>
        <mxCell id="lYNnbbYN6PRXDm3UlzL1-174" value="fecha_publicacion/ datetime" style="shape=partialRectangle;connectable=0;fillColor=none;top=0;left=0;bottom=0;right=0;align=left;spacingLeft=6;overflow=hidden;whiteSpace=wrap;html=1;" parent="lYNnbbYN6PRXDm3UlzL1-172" vertex="1">
          <mxGeometry x="35" width="219.99999999999977" height="30" as="geometry">
            <mxRectangle width="219.99999999999977" height="30" as="alternateBounds" />
          </mxGeometry>
        </mxCell>
        <mxCell id="lYNnbbYN6PRXDm3UlzL1-175" value="" style="shape=tableRow;horizontal=0;startSize=0;swimlaneHead=0;swimlaneBody=0;fillColor=none;collapsible=0;dropTarget=0;points=[[0,0.5],[1,0.5]];portConstraint=eastwest;top=0;left=0;right=0;bottom=0;" parent="lYNnbbYN6PRXDm3UlzL1-140" vertex="1">
          <mxGeometry y="180" width="254.99999999999977" height="30" as="geometry" />
        </mxCell>
        <mxCell id="lYNnbbYN6PRXDm3UlzL1-176" value="" style="shape=partialRectangle;connectable=0;fillColor=none;top=0;left=0;bottom=0;right=0;editable=1;overflow=hidden;whiteSpace=wrap;html=1;" parent="lYNnbbYN6PRXDm3UlzL1-175" vertex="1">
          <mxGeometry width="35" height="30" as="geometry">
            <mxRectangle width="35" height="30" as="alternateBounds" />
          </mxGeometry>
        </mxCell>
        <mxCell id="lYNnbbYN6PRXDm3UlzL1-177" value="fecha_cierre_postulacion/ datetime" style="shape=partialRectangle;connectable=0;fillColor=none;top=0;left=0;bottom=0;right=0;align=left;spacingLeft=6;overflow=hidden;whiteSpace=wrap;html=1;" parent="lYNnbbYN6PRXDm3UlzL1-175" vertex="1">
          <mxGeometry x="35" width="219.99999999999977" height="30" as="geometry">
            <mxRectangle width="219.99999999999977" height="30" as="alternateBounds" />
          </mxGeometry>
        </mxCell>
        <mxCell id="mw6ZCsg2sIin1n7KSRhl-69" value="" style="shape=tableRow;horizontal=0;startSize=0;swimlaneHead=0;swimlaneBody=0;fillColor=none;collapsible=0;dropTarget=0;points=[[0,0.5],[1,0.5]];portConstraint=eastwest;top=0;left=0;right=0;bottom=0;" parent="lYNnbbYN6PRXDm3UlzL1-140" vertex="1">
          <mxGeometry y="210" width="254.99999999999977" height="30" as="geometry" />
        </mxCell>
        <mxCell id="mw6ZCsg2sIin1n7KSRhl-70" value="" style="shape=partialRectangle;connectable=0;fillColor=none;top=0;left=0;bottom=0;right=0;editable=1;overflow=hidden;whiteSpace=wrap;html=1;" parent="mw6ZCsg2sIin1n7KSRhl-69" vertex="1">
          <mxGeometry width="35" height="30" as="geometry">
            <mxRectangle width="35" height="30" as="alternateBounds" />
          </mxGeometry>
        </mxCell>
        <mxCell id="mw6ZCsg2sIin1n7KSRhl-71" value="fecha_estimada_inicio/&lt;br&gt;datetime" style="shape=partialRectangle;connectable=0;fillColor=none;top=0;left=0;bottom=0;right=0;align=left;spacingLeft=6;overflow=hidden;whiteSpace=wrap;html=1;" parent="mw6ZCsg2sIin1n7KSRhl-69" vertex="1">
          <mxGeometry x="35" width="219.99999999999977" height="30" as="geometry">
            <mxRectangle width="219.99999999999977" height="30" as="alternateBounds" />
          </mxGeometry>
        </mxCell>
        <mxCell id="EUtWTuzQYgCr-teSh7SM-51" value="" style="shape=tableRow;horizontal=0;startSize=0;swimlaneHead=0;swimlaneBody=0;fillColor=none;collapsible=0;dropTarget=0;points=[[0,0.5],[1,0.5]];portConstraint=eastwest;top=0;left=0;right=0;bottom=0;" parent="lYNnbbYN6PRXDm3UlzL1-140" vertex="1">
          <mxGeometry y="240" width="254.99999999999977" height="30" as="geometry" />
        </mxCell>
        <mxCell id="EUtWTuzQYgCr-teSh7SM-52" value="" style="shape=partialRectangle;connectable=0;fillColor=none;top=0;left=0;bottom=0;right=0;editable=1;overflow=hidden;whiteSpace=wrap;html=1;" parent="EUtWTuzQYgCr-teSh7SM-51" vertex="1">
          <mxGeometry width="35" height="30" as="geometry">
            <mxRectangle width="35" height="30" as="alternateBounds" />
          </mxGeometry>
        </mxCell>
        <mxCell id="EUtWTuzQYgCr-teSh7SM-53" value="fecha_estimada_finalizacion/&lt;br&gt;datetime" style="shape=partialRectangle;connectable=0;fillColor=none;top=0;left=0;bottom=0;right=0;align=left;spacingLeft=6;overflow=hidden;whiteSpace=wrap;html=1;" parent="EUtWTuzQYgCr-teSh7SM-51" vertex="1">
          <mxGeometry x="35" width="219.99999999999977" height="30" as="geometry">
            <mxRectangle width="219.99999999999977" height="30" as="alternateBounds" />
          </mxGeometry>
        </mxCell>
        <mxCell id="EUtWTuzQYgCr-teSh7SM-54" value="" style="shape=tableRow;horizontal=0;startSize=0;swimlaneHead=0;swimlaneBody=0;fillColor=none;collapsible=0;dropTarget=0;points=[[0,0.5],[1,0.5]];portConstraint=eastwest;top=0;left=0;right=0;bottom=0;" parent="lYNnbbYN6PRXDm3UlzL1-140" vertex="1">
          <mxGeometry y="270" width="254.99999999999977" height="30" as="geometry" />
        </mxCell>
        <mxCell id="EUtWTuzQYgCr-teSh7SM-55" value="" style="shape=partialRectangle;connectable=0;fillColor=none;top=0;left=0;bottom=0;right=0;editable=1;overflow=hidden;whiteSpace=wrap;html=1;" parent="EUtWTuzQYgCr-teSh7SM-54" vertex="1">
          <mxGeometry width="35" height="30" as="geometry">
            <mxRectangle width="35" height="30" as="alternateBounds" />
          </mxGeometry>
        </mxCell>
        <mxCell id="EUtWTuzQYgCr-teSh7SM-56" value="ciudad/ varchar 15" style="shape=partialRectangle;connectable=0;fillColor=none;top=0;left=0;bottom=0;right=0;align=left;spacingLeft=6;overflow=hidden;whiteSpace=wrap;html=1;" parent="EUtWTuzQYgCr-teSh7SM-54" vertex="1">
          <mxGeometry x="35" width="219.99999999999977" height="30" as="geometry">
            <mxRectangle width="219.99999999999977" height="30" as="alternateBounds" />
          </mxGeometry>
        </mxCell>
        <mxCell id="KQjWkxKHFe8mV1Fo0zun-34" value="" style="shape=tableRow;horizontal=0;startSize=0;swimlaneHead=0;swimlaneBody=0;fillColor=none;collapsible=0;dropTarget=0;points=[[0,0.5],[1,0.5]];portConstraint=eastwest;top=0;left=0;right=0;bottom=0;" parent="lYNnbbYN6PRXDm3UlzL1-140" vertex="1">
          <mxGeometry y="300" width="254.99999999999977" height="30" as="geometry" />
        </mxCell>
        <mxCell id="KQjWkxKHFe8mV1Fo0zun-35" value="" style="shape=partialRectangle;connectable=0;fillColor=none;top=0;left=0;bottom=0;right=0;editable=1;overflow=hidden;whiteSpace=wrap;html=1;" parent="KQjWkxKHFe8mV1Fo0zun-34" vertex="1">
          <mxGeometry width="35" height="30" as="geometry">
            <mxRectangle width="35" height="30" as="alternateBounds" />
          </mxGeometry>
        </mxCell>
        <mxCell id="KQjWkxKHFe8mV1Fo0zun-36" value="activo/ bit" style="shape=partialRectangle;connectable=0;fillColor=none;top=0;left=0;bottom=0;right=0;align=left;spacingLeft=6;overflow=hidden;whiteSpace=wrap;html=1;" parent="KQjWkxKHFe8mV1Fo0zun-34" vertex="1">
          <mxGeometry x="35" width="219.99999999999977" height="30" as="geometry">
            <mxRectangle width="219.99999999999977" height="30" as="alternateBounds" />
          </mxGeometry>
        </mxCell>
        <mxCell id="rOvJ3Ont_MiSXSe-TAbP-1" value="" style="shape=tableRow;horizontal=0;startSize=0;swimlaneHead=0;swimlaneBody=0;fillColor=none;collapsible=0;dropTarget=0;points=[[0,0.5],[1,0.5]];portConstraint=eastwest;top=0;left=0;right=0;bottom=0;" parent="lYNnbbYN6PRXDm3UlzL1-140" vertex="1">
          <mxGeometry y="330" width="254.99999999999977" height="30" as="geometry" />
        </mxCell>
        <mxCell id="rOvJ3Ont_MiSXSe-TAbP-2" value="&lt;b&gt;FK&lt;/b&gt;" style="shape=partialRectangle;connectable=0;fillColor=none;top=0;left=0;bottom=0;right=0;editable=1;overflow=hidden;whiteSpace=wrap;html=1;" parent="rOvJ3Ont_MiSXSe-TAbP-1" vertex="1">
          <mxGeometry width="35" height="30" as="geometry">
            <mxRectangle width="35" height="30" as="alternateBounds" />
          </mxGeometry>
        </mxCell>
        <mxCell id="rOvJ3Ont_MiSXSe-TAbP-3" value="cedula_empleador" style="shape=partialRectangle;connectable=0;fillColor=none;top=0;left=0;bottom=0;right=0;align=left;spacingLeft=6;overflow=hidden;whiteSpace=wrap;html=1;" parent="rOvJ3Ont_MiSXSe-TAbP-1" vertex="1">
          <mxGeometry x="35" width="219.99999999999977" height="30" as="geometry">
            <mxRectangle width="219.99999999999977" height="30" as="alternateBounds" />
          </mxGeometry>
        </mxCell>
        <mxCell id="mw6ZCsg2sIin1n7KSRhl-33" style="edgeStyle=orthogonalEdgeStyle;rounded=0;orthogonalLoop=1;jettySize=auto;html=1;entryX=0;entryY=0.5;entryDx=0;entryDy=0;" parent="1" source="lYNnbbYN6PRXDm3UlzL1-183" target="lYNnbbYN6PRXDm3UlzL1-150" edge="1">
          <mxGeometry relative="1" as="geometry" />
        </mxCell>
        <mxCell id="lYNnbbYN6PRXDm3UlzL1-183" value="Postulaciones_Servicio" style="shape=table;startSize=30;container=1;collapsible=1;childLayout=tableLayout;fixedRows=1;rowLines=0;fontStyle=1;align=center;resizeLast=1;html=1;whiteSpace=wrap;" parent="1" vertex="1">
          <mxGeometry x="-40" y="610" width="180" height="150" as="geometry" />
        </mxCell>
        <mxCell id="lYNnbbYN6PRXDm3UlzL1-184" value="" style="shape=tableRow;horizontal=0;startSize=0;swimlaneHead=0;swimlaneBody=0;fillColor=none;collapsible=0;dropTarget=0;points=[[0,0.5],[1,0.5]];portConstraint=eastwest;top=0;left=0;right=0;bottom=0;html=1;" parent="lYNnbbYN6PRXDm3UlzL1-183" vertex="1">
          <mxGeometry y="30" width="180" height="30" as="geometry" />
        </mxCell>
        <mxCell id="lYNnbbYN6PRXDm3UlzL1-185" value="PK,FK1" style="shape=partialRectangle;connectable=0;fillColor=none;top=0;left=0;bottom=0;right=0;fontStyle=1;overflow=hidden;html=1;whiteSpace=wrap;" parent="lYNnbbYN6PRXDm3UlzL1-184" vertex="1">
          <mxGeometry width="60" height="30" as="geometry">
            <mxRectangle width="60" height="30" as="alternateBounds" />
          </mxGeometry>
        </mxCell>
        <mxCell id="lYNnbbYN6PRXDm3UlzL1-186" value="id_servicio" style="shape=partialRectangle;connectable=0;fillColor=none;top=0;left=0;bottom=0;right=0;align=left;spacingLeft=6;fontStyle=5;overflow=hidden;html=1;whiteSpace=wrap;" parent="lYNnbbYN6PRXDm3UlzL1-184" vertex="1">
          <mxGeometry x="60" width="120" height="30" as="geometry">
            <mxRectangle width="120" height="30" as="alternateBounds" />
          </mxGeometry>
        </mxCell>
        <mxCell id="lYNnbbYN6PRXDm3UlzL1-187" value="" style="shape=tableRow;horizontal=0;startSize=0;swimlaneHead=0;swimlaneBody=0;fillColor=none;collapsible=0;dropTarget=0;points=[[0,0.5],[1,0.5]];portConstraint=eastwest;top=0;left=0;right=0;bottom=1;html=1;" parent="lYNnbbYN6PRXDm3UlzL1-183" vertex="1">
          <mxGeometry y="60" width="180" height="30" as="geometry" />
        </mxCell>
        <mxCell id="lYNnbbYN6PRXDm3UlzL1-188" value="PK,FK2" style="shape=partialRectangle;connectable=0;fillColor=none;top=0;left=0;bottom=0;right=0;fontStyle=1;overflow=hidden;html=1;whiteSpace=wrap;" parent="lYNnbbYN6PRXDm3UlzL1-187" vertex="1">
          <mxGeometry width="60" height="30" as="geometry">
            <mxRectangle width="60" height="30" as="alternateBounds" />
          </mxGeometry>
        </mxCell>
        <mxCell id="lYNnbbYN6PRXDm3UlzL1-189" value="cedula_proveedor" style="shape=partialRectangle;connectable=0;fillColor=none;top=0;left=0;bottom=0;right=0;align=left;spacingLeft=6;fontStyle=5;overflow=hidden;html=1;whiteSpace=wrap;" parent="lYNnbbYN6PRXDm3UlzL1-187" vertex="1">
          <mxGeometry x="60" width="120" height="30" as="geometry">
            <mxRectangle width="120" height="30" as="alternateBounds" />
          </mxGeometry>
        </mxCell>
        <mxCell id="lYNnbbYN6PRXDm3UlzL1-190" value="" style="shape=tableRow;horizontal=0;startSize=0;swimlaneHead=0;swimlaneBody=0;fillColor=none;collapsible=0;dropTarget=0;points=[[0,0.5],[1,0.5]];portConstraint=eastwest;top=0;left=0;right=0;bottom=0;html=1;" parent="lYNnbbYN6PRXDm3UlzL1-183" vertex="1">
          <mxGeometry y="90" width="180" height="30" as="geometry" />
        </mxCell>
        <mxCell id="lYNnbbYN6PRXDm3UlzL1-191" value="" style="shape=partialRectangle;connectable=0;fillColor=none;top=0;left=0;bottom=0;right=0;editable=1;overflow=hidden;html=1;whiteSpace=wrap;" parent="lYNnbbYN6PRXDm3UlzL1-190" vertex="1">
          <mxGeometry width="60" height="30" as="geometry">
            <mxRectangle width="60" height="30" as="alternateBounds" />
          </mxGeometry>
        </mxCell>
        <mxCell id="lYNnbbYN6PRXDm3UlzL1-192" value="pago_sugerido/ int" style="shape=partialRectangle;connectable=0;fillColor=none;top=0;left=0;bottom=0;right=0;align=left;spacingLeft=6;overflow=hidden;html=1;whiteSpace=wrap;" parent="lYNnbbYN6PRXDm3UlzL1-190" vertex="1">
          <mxGeometry x="60" width="120" height="30" as="geometry">
            <mxRectangle width="120" height="30" as="alternateBounds" />
          </mxGeometry>
        </mxCell>
        <mxCell id="lYNnbbYN6PRXDm3UlzL1-196" value="" style="shape=tableRow;horizontal=0;startSize=0;swimlaneHead=0;swimlaneBody=0;fillColor=none;collapsible=0;dropTarget=0;points=[[0,0.5],[1,0.5]];portConstraint=eastwest;top=0;left=0;right=0;bottom=0;html=1;" parent="lYNnbbYN6PRXDm3UlzL1-183" vertex="1">
          <mxGeometry y="120" width="180" height="30" as="geometry" />
        </mxCell>
        <mxCell id="lYNnbbYN6PRXDm3UlzL1-197" value="" style="shape=partialRectangle;connectable=0;fillColor=none;top=0;left=0;bottom=0;right=0;editable=1;overflow=hidden;html=1;whiteSpace=wrap;" parent="lYNnbbYN6PRXDm3UlzL1-196" vertex="1">
          <mxGeometry width="60" height="30" as="geometry">
            <mxRectangle width="60" height="30" as="alternateBounds" />
          </mxGeometry>
        </mxCell>
        <mxCell id="lYNnbbYN6PRXDm3UlzL1-198" value="notas/ varchar 100" style="shape=partialRectangle;connectable=0;fillColor=none;top=0;left=0;bottom=0;right=0;align=left;spacingLeft=6;overflow=hidden;html=1;whiteSpace=wrap;" parent="lYNnbbYN6PRXDm3UlzL1-196" vertex="1">
          <mxGeometry x="60" width="120" height="30" as="geometry">
            <mxRectangle width="120" height="30" as="alternateBounds" />
          </mxGeometry>
        </mxCell>
        <mxCell id="lYNnbbYN6PRXDm3UlzL1-201" value="Especializaciones_Proveedor" style="shape=table;startSize=30;container=1;collapsible=1;childLayout=tableLayout;fixedRows=1;rowLines=0;fontStyle=1;align=center;resizeLast=1;html=1;whiteSpace=wrap;" parent="1" vertex="1">
          <mxGeometry x="-240" y="310" width="180" height="90" as="geometry" />
        </mxCell>
        <mxCell id="lYNnbbYN6PRXDm3UlzL1-202" value="" style="shape=tableRow;horizontal=0;startSize=0;swimlaneHead=0;swimlaneBody=0;fillColor=none;collapsible=0;dropTarget=0;points=[[0,0.5],[1,0.5]];portConstraint=eastwest;top=0;left=0;right=0;bottom=0;html=1;" parent="lYNnbbYN6PRXDm3UlzL1-201" vertex="1">
          <mxGeometry y="30" width="180" height="30" as="geometry" />
        </mxCell>
        <mxCell id="lYNnbbYN6PRXDm3UlzL1-203" value="PK,FK1" style="shape=partialRectangle;connectable=0;fillColor=none;top=0;left=0;bottom=0;right=0;fontStyle=1;overflow=hidden;html=1;whiteSpace=wrap;" parent="lYNnbbYN6PRXDm3UlzL1-202" vertex="1">
          <mxGeometry width="60" height="30" as="geometry">
            <mxRectangle width="60" height="30" as="alternateBounds" />
          </mxGeometry>
        </mxCell>
        <mxCell id="lYNnbbYN6PRXDm3UlzL1-204" value="cedula_proveedor" style="shape=partialRectangle;connectable=0;fillColor=none;top=0;left=0;bottom=0;right=0;align=left;spacingLeft=6;fontStyle=5;overflow=hidden;html=1;whiteSpace=wrap;" parent="lYNnbbYN6PRXDm3UlzL1-202" vertex="1">
          <mxGeometry x="60" width="120" height="30" as="geometry">
            <mxRectangle width="120" height="30" as="alternateBounds" />
          </mxGeometry>
        </mxCell>
        <mxCell id="lYNnbbYN6PRXDm3UlzL1-205" value="" style="shape=tableRow;horizontal=0;startSize=0;swimlaneHead=0;swimlaneBody=0;fillColor=none;collapsible=0;dropTarget=0;points=[[0,0.5],[1,0.5]];portConstraint=eastwest;top=0;left=0;right=0;bottom=1;html=1;" parent="lYNnbbYN6PRXDm3UlzL1-201" vertex="1">
          <mxGeometry y="60" width="180" height="30" as="geometry" />
        </mxCell>
        <mxCell id="lYNnbbYN6PRXDm3UlzL1-206" value="PK,FK2" style="shape=partialRectangle;connectable=0;fillColor=none;top=0;left=0;bottom=0;right=0;fontStyle=1;overflow=hidden;html=1;whiteSpace=wrap;" parent="lYNnbbYN6PRXDm3UlzL1-205" vertex="1">
          <mxGeometry width="60" height="30" as="geometry">
            <mxRectangle width="60" height="30" as="alternateBounds" />
          </mxGeometry>
        </mxCell>
        <mxCell id="lYNnbbYN6PRXDm3UlzL1-207" value="tipo" style="shape=partialRectangle;connectable=0;fillColor=none;top=0;left=0;bottom=0;right=0;align=left;spacingLeft=6;fontStyle=5;overflow=hidden;html=1;whiteSpace=wrap;" parent="lYNnbbYN6PRXDm3UlzL1-205" vertex="1">
          <mxGeometry x="60" width="120" height="30" as="geometry">
            <mxRectangle width="120" height="30" as="alternateBounds" />
          </mxGeometry>
        </mxCell>
        <mxCell id="lYNnbbYN6PRXDm3UlzL1-214" style="edgeStyle=orthogonalEdgeStyle;rounded=0;orthogonalLoop=1;jettySize=auto;html=1;entryX=1;entryY=0.5;entryDx=0;entryDy=0;" parent="1" source="lYNnbbYN6PRXDm3UlzL1-205" edge="1">
          <mxGeometry relative="1" as="geometry">
            <mxPoint x="-409.9999999999999" y="405" as="targetPoint" />
            <Array as="points">
              <mxPoint x="-390" y="385" />
              <mxPoint x="-390" y="405" />
            </Array>
          </mxGeometry>
        </mxCell>
        <mxCell id="lYNnbbYN6PRXDm3UlzL1-215" style="edgeStyle=orthogonalEdgeStyle;rounded=0;orthogonalLoop=1;jettySize=auto;html=1;" parent="1" source="lYNnbbYN6PRXDm3UlzL1-202" edge="1">
          <mxGeometry relative="1" as="geometry">
            <mxPoint x="120" y="355" as="targetPoint" />
          </mxGeometry>
        </mxCell>
        <mxCell id="lYNnbbYN6PRXDm3UlzL1-233" value="Proveedores_en_contrato" style="shape=table;startSize=30;container=1;collapsible=1;childLayout=tableLayout;fixedRows=1;rowLines=0;fontStyle=1;align=center;resizeLast=1;html=1;whiteSpace=wrap;" parent="1" vertex="1">
          <mxGeometry x="-210" y="870" width="180" height="120" as="geometry" />
        </mxCell>
        <mxCell id="lYNnbbYN6PRXDm3UlzL1-234" value="" style="shape=tableRow;horizontal=0;startSize=0;swimlaneHead=0;swimlaneBody=0;fillColor=none;collapsible=0;dropTarget=0;points=[[0,0.5],[1,0.5]];portConstraint=eastwest;top=0;left=0;right=0;bottom=0;html=1;" parent="lYNnbbYN6PRXDm3UlzL1-233" vertex="1">
          <mxGeometry y="30" width="180" height="30" as="geometry" />
        </mxCell>
        <mxCell id="lYNnbbYN6PRXDm3UlzL1-235" value="PK,FK1" style="shape=partialRectangle;connectable=0;fillColor=none;top=0;left=0;bottom=0;right=0;fontStyle=1;overflow=hidden;html=1;whiteSpace=wrap;" parent="lYNnbbYN6PRXDm3UlzL1-234" vertex="1">
          <mxGeometry width="60" height="30" as="geometry">
            <mxRectangle width="60" height="30" as="alternateBounds" />
          </mxGeometry>
        </mxCell>
        <mxCell id="lYNnbbYN6PRXDm3UlzL1-236" value="id_servicio" style="shape=partialRectangle;connectable=0;fillColor=none;top=0;left=0;bottom=0;right=0;align=left;spacingLeft=6;fontStyle=5;overflow=hidden;html=1;whiteSpace=wrap;" parent="lYNnbbYN6PRXDm3UlzL1-234" vertex="1">
          <mxGeometry x="60" width="120" height="30" as="geometry">
            <mxRectangle width="120" height="30" as="alternateBounds" />
          </mxGeometry>
        </mxCell>
        <mxCell id="lYNnbbYN6PRXDm3UlzL1-237" value="" style="shape=tableRow;horizontal=0;startSize=0;swimlaneHead=0;swimlaneBody=0;fillColor=none;collapsible=0;dropTarget=0;points=[[0,0.5],[1,0.5]];portConstraint=eastwest;top=0;left=0;right=0;bottom=1;html=1;" parent="lYNnbbYN6PRXDm3UlzL1-233" vertex="1">
          <mxGeometry y="60" width="180" height="30" as="geometry" />
        </mxCell>
        <mxCell id="lYNnbbYN6PRXDm3UlzL1-238" value="PK,FK2" style="shape=partialRectangle;connectable=0;fillColor=none;top=0;left=0;bottom=0;right=0;fontStyle=1;overflow=hidden;html=1;whiteSpace=wrap;" parent="lYNnbbYN6PRXDm3UlzL1-237" vertex="1">
          <mxGeometry width="60" height="30" as="geometry">
            <mxRectangle width="60" height="30" as="alternateBounds" />
          </mxGeometry>
        </mxCell>
        <mxCell id="lYNnbbYN6PRXDm3UlzL1-239" value="cedula_proveedor" style="shape=partialRectangle;connectable=0;fillColor=none;top=0;left=0;bottom=0;right=0;align=left;spacingLeft=6;fontStyle=5;overflow=hidden;html=1;whiteSpace=wrap;" parent="lYNnbbYN6PRXDm3UlzL1-237" vertex="1">
          <mxGeometry x="60" width="120" height="30" as="geometry">
            <mxRectangle width="120" height="30" as="alternateBounds" />
          </mxGeometry>
        </mxCell>
        <mxCell id="lYNnbbYN6PRXDm3UlzL1-240" value="" style="shape=tableRow;horizontal=0;startSize=0;swimlaneHead=0;swimlaneBody=0;fillColor=none;collapsible=0;dropTarget=0;points=[[0,0.5],[1,0.5]];portConstraint=eastwest;top=0;left=0;right=0;bottom=0;html=1;" parent="lYNnbbYN6PRXDm3UlzL1-233" vertex="1">
          <mxGeometry y="90" width="180" height="30" as="geometry" />
        </mxCell>
        <mxCell id="lYNnbbYN6PRXDm3UlzL1-241" value="" style="shape=partialRectangle;connectable=0;fillColor=none;top=0;left=0;bottom=0;right=0;editable=1;overflow=hidden;html=1;whiteSpace=wrap;" parent="lYNnbbYN6PRXDm3UlzL1-240" vertex="1">
          <mxGeometry width="60" height="30" as="geometry">
            <mxRectangle width="60" height="30" as="alternateBounds" />
          </mxGeometry>
        </mxCell>
        <mxCell id="lYNnbbYN6PRXDm3UlzL1-242" value="pago/ int" style="shape=partialRectangle;connectable=0;fillColor=none;top=0;left=0;bottom=0;right=0;align=left;spacingLeft=6;overflow=hidden;html=1;whiteSpace=wrap;" parent="lYNnbbYN6PRXDm3UlzL1-240" vertex="1">
          <mxGeometry x="60" width="120" height="30" as="geometry">
            <mxRectangle width="120" height="30" as="alternateBounds" />
          </mxGeometry>
        </mxCell>
        <mxCell id="lYNnbbYN6PRXDm3UlzL1-246" style="edgeStyle=orthogonalEdgeStyle;rounded=0;orthogonalLoop=1;jettySize=auto;html=1;entryX=0.25;entryY=0;entryDx=0;entryDy=0;" parent="1" source="lYNnbbYN6PRXDm3UlzL1-234" target="gVzFQTgOOPTnhe-5QHaK-2" edge="1">
          <mxGeometry relative="1" as="geometry">
            <mxPoint x="232.5" y="975" as="targetPoint" />
          </mxGeometry>
        </mxCell>
        <mxCell id="lYNnbbYN6PRXDm3UlzL1-248" value="Resena_Proveedor" style="shape=table;startSize=30;container=1;collapsible=1;childLayout=tableLayout;fixedRows=1;rowLines=0;fontStyle=1;align=center;resizeLast=1;html=1;whiteSpace=wrap;" parent="1" vertex="1">
          <mxGeometry x="80" y="-230" width="205" height="150" as="geometry" />
        </mxCell>
        <mxCell id="lYNnbbYN6PRXDm3UlzL1-249" value="" style="shape=tableRow;horizontal=0;startSize=0;swimlaneHead=0;swimlaneBody=0;fillColor=none;collapsible=0;dropTarget=0;points=[[0,0.5],[1,0.5]];portConstraint=eastwest;top=0;left=0;right=0;bottom=0;html=1;" parent="lYNnbbYN6PRXDm3UlzL1-248" vertex="1">
          <mxGeometry y="30" width="205" height="30" as="geometry" />
        </mxCell>
        <mxCell id="lYNnbbYN6PRXDm3UlzL1-250" value="PK,FK1" style="shape=partialRectangle;connectable=0;fillColor=none;top=0;left=0;bottom=0;right=0;fontStyle=1;overflow=hidden;html=1;whiteSpace=wrap;" parent="lYNnbbYN6PRXDm3UlzL1-249" vertex="1">
          <mxGeometry width="60" height="30" as="geometry">
            <mxRectangle width="60" height="30" as="alternateBounds" />
          </mxGeometry>
        </mxCell>
        <mxCell id="lYNnbbYN6PRXDm3UlzL1-251" value="empleador" style="shape=partialRectangle;connectable=0;fillColor=none;top=0;left=0;bottom=0;right=0;align=left;spacingLeft=6;fontStyle=5;overflow=hidden;html=1;whiteSpace=wrap;" parent="lYNnbbYN6PRXDm3UlzL1-249" vertex="1">
          <mxGeometry x="60" width="145" height="30" as="geometry">
            <mxRectangle width="145" height="30" as="alternateBounds" />
          </mxGeometry>
        </mxCell>
        <mxCell id="mw6ZCsg2sIin1n7KSRhl-26" value="" style="shape=tableRow;horizontal=0;startSize=0;swimlaneHead=0;swimlaneBody=0;fillColor=none;collapsible=0;dropTarget=0;points=[[0,0.5],[1,0.5]];portConstraint=eastwest;top=0;left=0;right=0;bottom=0;html=1;" parent="lYNnbbYN6PRXDm3UlzL1-248" vertex="1">
          <mxGeometry y="60" width="205" height="30" as="geometry" />
        </mxCell>
        <mxCell id="mw6ZCsg2sIin1n7KSRhl-27" value="PK,FK2" style="shape=partialRectangle;connectable=0;fillColor=none;top=0;left=0;bottom=0;right=0;fontStyle=1;overflow=hidden;html=1;whiteSpace=wrap;" parent="mw6ZCsg2sIin1n7KSRhl-26" vertex="1">
          <mxGeometry width="60" height="30" as="geometry">
            <mxRectangle width="60" height="30" as="alternateBounds" />
          </mxGeometry>
        </mxCell>
        <mxCell id="mw6ZCsg2sIin1n7KSRhl-28" value="proveedor" style="shape=partialRectangle;connectable=0;fillColor=none;top=0;left=0;bottom=0;right=0;align=left;spacingLeft=6;fontStyle=5;overflow=hidden;html=1;whiteSpace=wrap;" parent="mw6ZCsg2sIin1n7KSRhl-26" vertex="1">
          <mxGeometry x="60" width="145" height="30" as="geometry">
            <mxRectangle width="145" height="30" as="alternateBounds" />
          </mxGeometry>
        </mxCell>
        <mxCell id="lYNnbbYN6PRXDm3UlzL1-255" value="" style="shape=tableRow;horizontal=0;startSize=0;swimlaneHead=0;swimlaneBody=0;fillColor=none;collapsible=0;dropTarget=0;points=[[0,0.5],[1,0.5]];portConstraint=eastwest;top=0;left=0;right=0;bottom=0;html=1;" parent="lYNnbbYN6PRXDm3UlzL1-248" vertex="1">
          <mxGeometry y="90" width="205" height="30" as="geometry" />
        </mxCell>
        <mxCell id="lYNnbbYN6PRXDm3UlzL1-256" value="" style="shape=partialRectangle;connectable=0;fillColor=none;top=0;left=0;bottom=0;right=0;editable=1;overflow=hidden;html=1;whiteSpace=wrap;" parent="lYNnbbYN6PRXDm3UlzL1-255" vertex="1">
          <mxGeometry width="60" height="30" as="geometry">
            <mxRectangle width="60" height="30" as="alternateBounds" />
          </mxGeometry>
        </mxCell>
        <mxCell id="lYNnbbYN6PRXDm3UlzL1-257" value="calificacion/ tinyint" style="shape=partialRectangle;connectable=0;fillColor=none;top=0;left=0;bottom=0;right=0;align=left;spacingLeft=6;overflow=hidden;html=1;whiteSpace=wrap;" parent="lYNnbbYN6PRXDm3UlzL1-255" vertex="1">
          <mxGeometry x="60" width="145" height="30" as="geometry">
            <mxRectangle width="145" height="30" as="alternateBounds" />
          </mxGeometry>
        </mxCell>
        <mxCell id="lYNnbbYN6PRXDm3UlzL1-258" value="" style="shape=tableRow;horizontal=0;startSize=0;swimlaneHead=0;swimlaneBody=0;fillColor=none;collapsible=0;dropTarget=0;points=[[0,0.5],[1,0.5]];portConstraint=eastwest;top=0;left=0;right=0;bottom=0;html=1;" parent="lYNnbbYN6PRXDm3UlzL1-248" vertex="1">
          <mxGeometry y="120" width="205" height="30" as="geometry" />
        </mxCell>
        <mxCell id="lYNnbbYN6PRXDm3UlzL1-259" value="" style="shape=partialRectangle;connectable=0;fillColor=none;top=0;left=0;bottom=0;right=0;editable=1;overflow=hidden;html=1;whiteSpace=wrap;" parent="lYNnbbYN6PRXDm3UlzL1-258" vertex="1">
          <mxGeometry width="60" height="30" as="geometry">
            <mxRectangle width="60" height="30" as="alternateBounds" />
          </mxGeometry>
        </mxCell>
        <mxCell id="lYNnbbYN6PRXDm3UlzL1-260" value="comentarios/ varchar 150" style="shape=partialRectangle;connectable=0;fillColor=none;top=0;left=0;bottom=0;right=0;align=left;spacingLeft=6;overflow=hidden;html=1;whiteSpace=wrap;" parent="lYNnbbYN6PRXDm3UlzL1-258" vertex="1">
          <mxGeometry x="60" width="145" height="30" as="geometry">
            <mxRectangle width="145" height="30" as="alternateBounds" />
          </mxGeometry>
        </mxCell>
        <mxCell id="lYNnbbYN6PRXDm3UlzL1-261" style="edgeStyle=orthogonalEdgeStyle;rounded=0;orthogonalLoop=1;jettySize=auto;html=1;entryX=0.5;entryY=0;entryDx=0;entryDy=0;exitX=0.632;exitY=1.031;exitDx=0;exitDy=0;exitPerimeter=0;" parent="1" source="lYNnbbYN6PRXDm3UlzL1-258" target="lYNnbbYN6PRXDm3UlzL1-1" edge="1">
          <mxGeometry relative="1" as="geometry">
            <mxPoint x="160" y="10" as="sourcePoint" />
            <Array as="points">
              <mxPoint x="210" y="-75" />
              <mxPoint x="210" y="-75" />
            </Array>
          </mxGeometry>
        </mxCell>
        <mxCell id="lYNnbbYN6PRXDm3UlzL1-262" style="edgeStyle=orthogonalEdgeStyle;rounded=0;orthogonalLoop=1;jettySize=auto;html=1;exitX=0.858;exitY=1.02;exitDx=0;exitDy=0;exitPerimeter=0;entryX=0.056;entryY=-0.033;entryDx=0;entryDy=0;entryPerimeter=0;" parent="1" source="lYNnbbYN6PRXDm3UlzL1-258" target="lYNnbbYN6PRXDm3UlzL1-30" edge="1">
          <mxGeometry relative="1" as="geometry">
            <mxPoint x="440" y="40" as="targetPoint" />
            <Array as="points">
              <mxPoint x="256" y="25" />
              <mxPoint x="380" y="25" />
            </Array>
          </mxGeometry>
        </mxCell>
        <mxCell id="lYNnbbYN6PRXDm3UlzL1-298" value="Mensaje" style="shape=table;startSize=30;container=1;collapsible=1;childLayout=tableLayout;fixedRows=1;rowLines=0;fontStyle=1;align=center;resizeLast=1;html=1;whiteSpace=wrap;" parent="1" vertex="1">
          <mxGeometry x="660" y="625" width="180" height="150" as="geometry" />
        </mxCell>
        <mxCell id="lYNnbbYN6PRXDm3UlzL1-299" value="" style="shape=tableRow;horizontal=0;startSize=0;swimlaneHead=0;swimlaneBody=0;fillColor=none;collapsible=0;dropTarget=0;points=[[0,0.5],[1,0.5]];portConstraint=eastwest;top=0;left=0;right=0;bottom=0;html=1;" parent="lYNnbbYN6PRXDm3UlzL1-298" vertex="1">
          <mxGeometry y="30" width="180" height="30" as="geometry" />
        </mxCell>
        <mxCell id="lYNnbbYN6PRXDm3UlzL1-300" value="PK,FK1" style="shape=partialRectangle;connectable=0;fillColor=none;top=0;left=0;bottom=0;right=0;fontStyle=1;overflow=hidden;html=1;whiteSpace=wrap;" parent="lYNnbbYN6PRXDm3UlzL1-299" vertex="1">
          <mxGeometry width="60" height="30" as="geometry">
            <mxRectangle width="60" height="30" as="alternateBounds" />
          </mxGeometry>
        </mxCell>
        <mxCell id="lYNnbbYN6PRXDm3UlzL1-301" value="id_chat" style="shape=partialRectangle;connectable=0;fillColor=none;top=0;left=0;bottom=0;right=0;align=left;spacingLeft=6;fontStyle=5;overflow=hidden;html=1;whiteSpace=wrap;" parent="lYNnbbYN6PRXDm3UlzL1-299" vertex="1">
          <mxGeometry x="60" width="120" height="30" as="geometry">
            <mxRectangle width="120" height="30" as="alternateBounds" />
          </mxGeometry>
        </mxCell>
        <mxCell id="lYNnbbYN6PRXDm3UlzL1-302" value="" style="shape=tableRow;horizontal=0;startSize=0;swimlaneHead=0;swimlaneBody=0;fillColor=none;collapsible=0;dropTarget=0;points=[[0,0.5],[1,0.5]];portConstraint=eastwest;top=0;left=0;right=0;bottom=1;html=1;" parent="lYNnbbYN6PRXDm3UlzL1-298" vertex="1">
          <mxGeometry y="60" width="180" height="30" as="geometry" />
        </mxCell>
        <mxCell id="lYNnbbYN6PRXDm3UlzL1-303" value="PK" style="shape=partialRectangle;connectable=0;fillColor=none;top=0;left=0;bottom=0;right=0;fontStyle=1;overflow=hidden;html=1;whiteSpace=wrap;" parent="lYNnbbYN6PRXDm3UlzL1-302" vertex="1">
          <mxGeometry width="60" height="30" as="geometry">
            <mxRectangle width="60" height="30" as="alternateBounds" />
          </mxGeometry>
        </mxCell>
        <mxCell id="lYNnbbYN6PRXDm3UlzL1-304" value="fecha_envio/ datetime2" style="shape=partialRectangle;connectable=0;fillColor=none;top=0;left=0;bottom=0;right=0;align=left;spacingLeft=6;fontStyle=5;overflow=hidden;html=1;whiteSpace=wrap;" parent="lYNnbbYN6PRXDm3UlzL1-302" vertex="1">
          <mxGeometry x="60" width="120" height="30" as="geometry">
            <mxRectangle width="120" height="30" as="alternateBounds" />
          </mxGeometry>
        </mxCell>
        <mxCell id="lYNnbbYN6PRXDm3UlzL1-305" value="" style="shape=tableRow;horizontal=0;startSize=0;swimlaneHead=0;swimlaneBody=0;fillColor=none;collapsible=0;dropTarget=0;points=[[0,0.5],[1,0.5]];portConstraint=eastwest;top=0;left=0;right=0;bottom=0;html=1;" parent="lYNnbbYN6PRXDm3UlzL1-298" vertex="1">
          <mxGeometry y="90" width="180" height="30" as="geometry" />
        </mxCell>
        <mxCell id="lYNnbbYN6PRXDm3UlzL1-306" value="" style="shape=partialRectangle;connectable=0;fillColor=none;top=0;left=0;bottom=0;right=0;editable=1;overflow=hidden;html=1;whiteSpace=wrap;" parent="lYNnbbYN6PRXDm3UlzL1-305" vertex="1">
          <mxGeometry width="60" height="30" as="geometry">
            <mxRectangle width="60" height="30" as="alternateBounds" />
          </mxGeometry>
        </mxCell>
        <mxCell id="lYNnbbYN6PRXDm3UlzL1-307" value="contenido/ varchar 200" style="shape=partialRectangle;connectable=0;fillColor=none;top=0;left=0;bottom=0;right=0;align=left;spacingLeft=6;overflow=hidden;html=1;whiteSpace=wrap;" parent="lYNnbbYN6PRXDm3UlzL1-305" vertex="1">
          <mxGeometry x="60" width="120" height="30" as="geometry">
            <mxRectangle width="120" height="30" as="alternateBounds" />
          </mxGeometry>
        </mxCell>
        <mxCell id="EUtWTuzQYgCr-teSh7SM-70" value="" style="shape=tableRow;horizontal=0;startSize=0;swimlaneHead=0;swimlaneBody=0;fillColor=none;collapsible=0;dropTarget=0;points=[[0,0.5],[1,0.5]];portConstraint=eastwest;top=0;left=0;right=0;bottom=0;html=1;" parent="lYNnbbYN6PRXDm3UlzL1-298" vertex="1">
          <mxGeometry y="120" width="180" height="30" as="geometry" />
        </mxCell>
        <mxCell id="EUtWTuzQYgCr-teSh7SM-71" value="" style="shape=partialRectangle;connectable=0;fillColor=none;top=0;left=0;bottom=0;right=0;editable=1;overflow=hidden;html=1;whiteSpace=wrap;" parent="EUtWTuzQYgCr-teSh7SM-70" vertex="1">
          <mxGeometry width="60" height="30" as="geometry">
            <mxRectangle width="60" height="30" as="alternateBounds" />
          </mxGeometry>
        </mxCell>
        <mxCell id="EUtWTuzQYgCr-teSh7SM-72" value="tipo_remitente/ bit" style="shape=partialRectangle;connectable=0;fillColor=none;top=0;left=0;bottom=0;right=0;align=left;spacingLeft=6;overflow=hidden;html=1;whiteSpace=wrap;" parent="EUtWTuzQYgCr-teSh7SM-70" vertex="1">
          <mxGeometry x="60" width="120" height="30" as="geometry">
            <mxRectangle width="120" height="30" as="alternateBounds" />
          </mxGeometry>
        </mxCell>
        <mxCell id="mw6ZCsg2sIin1n7KSRhl-29" style="edgeStyle=orthogonalEdgeStyle;rounded=0;orthogonalLoop=1;jettySize=auto;html=1;entryX=0.505;entryY=1.054;entryDx=0;entryDy=0;entryPerimeter=0;" parent="1" source="lYNnbbYN6PRXDm3UlzL1-56" target="lYNnbbYN6PRXDm3UlzL1-47" edge="1">
          <mxGeometry relative="1" as="geometry">
            <Array as="points">
              <mxPoint x="740" y="-5" />
              <mxPoint x="741" y="-5" />
            </Array>
          </mxGeometry>
        </mxCell>
        <mxCell id="mw6ZCsg2sIin1n7KSRhl-30" style="edgeStyle=orthogonalEdgeStyle;rounded=0;orthogonalLoop=1;jettySize=auto;html=1;exitX=0.5;exitY=0;exitDx=0;exitDy=0;entryX=0.316;entryY=1.072;entryDx=0;entryDy=0;entryPerimeter=0;" parent="1" source="lYNnbbYN6PRXDm3UlzL1-183" target="mw6ZCsg2sIin1n7KSRhl-66" edge="1">
          <mxGeometry relative="1" as="geometry">
            <mxPoint x="160" y="390" as="targetPoint" />
            <Array as="points">
              <mxPoint x="50" y="500" />
              <mxPoint x="177" y="500" />
            </Array>
          </mxGeometry>
        </mxCell>
        <mxCell id="mw6ZCsg2sIin1n7KSRhl-31" style="edgeStyle=orthogonalEdgeStyle;rounded=0;orthogonalLoop=1;jettySize=auto;html=1;entryX=0.093;entryY=1.053;entryDx=0;entryDy=0;entryPerimeter=0;" parent="1" source="lYNnbbYN6PRXDm3UlzL1-233" target="mw6ZCsg2sIin1n7KSRhl-66" edge="1">
          <mxGeometry relative="1" as="geometry">
            <mxPoint x="60" y="420" as="targetPoint" />
            <Array as="points">
              <mxPoint x="-120" y="460" />
              <mxPoint x="137" y="460" />
              <mxPoint x="137" y="420" />
            </Array>
          </mxGeometry>
        </mxCell>
        <mxCell id="mw6ZCsg2sIin1n7KSRhl-48" value="Tipo_De_Servicio" style="shape=table;startSize=30;container=1;collapsible=1;childLayout=tableLayout;fixedRows=1;rowLines=0;fontStyle=1;align=center;resizeLast=1;html=1;whiteSpace=wrap;" parent="1" vertex="1">
          <mxGeometry x="-590" y="575" width="180" height="90" as="geometry" />
        </mxCell>
        <mxCell id="mw6ZCsg2sIin1n7KSRhl-49" value="" style="shape=tableRow;horizontal=0;startSize=0;swimlaneHead=0;swimlaneBody=0;fillColor=none;collapsible=0;dropTarget=0;points=[[0,0.5],[1,0.5]];portConstraint=eastwest;top=0;left=0;right=0;bottom=0;html=1;" parent="mw6ZCsg2sIin1n7KSRhl-48" vertex="1">
          <mxGeometry y="30" width="180" height="30" as="geometry" />
        </mxCell>
        <mxCell id="mw6ZCsg2sIin1n7KSRhl-50" value="PK,FK1" style="shape=partialRectangle;connectable=0;fillColor=none;top=0;left=0;bottom=0;right=0;fontStyle=1;overflow=hidden;html=1;whiteSpace=wrap;" parent="mw6ZCsg2sIin1n7KSRhl-49" vertex="1">
          <mxGeometry width="60" height="30" as="geometry">
            <mxRectangle width="60" height="30" as="alternateBounds" />
          </mxGeometry>
        </mxCell>
        <mxCell id="mw6ZCsg2sIin1n7KSRhl-51" value="servicio" style="shape=partialRectangle;connectable=0;fillColor=none;top=0;left=0;bottom=0;right=0;align=left;spacingLeft=6;fontStyle=5;overflow=hidden;html=1;whiteSpace=wrap;" parent="mw6ZCsg2sIin1n7KSRhl-49" vertex="1">
          <mxGeometry x="60" width="120" height="30" as="geometry">
            <mxRectangle width="120" height="30" as="alternateBounds" />
          </mxGeometry>
        </mxCell>
        <mxCell id="mw6ZCsg2sIin1n7KSRhl-52" value="" style="shape=tableRow;horizontal=0;startSize=0;swimlaneHead=0;swimlaneBody=0;fillColor=none;collapsible=0;dropTarget=0;points=[[0,0.5],[1,0.5]];portConstraint=eastwest;top=0;left=0;right=0;bottom=1;html=1;" parent="mw6ZCsg2sIin1n7KSRhl-48" vertex="1">
          <mxGeometry y="60" width="180" height="30" as="geometry" />
        </mxCell>
        <mxCell id="mw6ZCsg2sIin1n7KSRhl-53" value="PK,FK2" style="shape=partialRectangle;connectable=0;fillColor=none;top=0;left=0;bottom=0;right=0;fontStyle=1;overflow=hidden;html=1;whiteSpace=wrap;" parent="mw6ZCsg2sIin1n7KSRhl-52" vertex="1">
          <mxGeometry width="60" height="30" as="geometry">
            <mxRectangle width="60" height="30" as="alternateBounds" />
          </mxGeometry>
        </mxCell>
        <mxCell id="mw6ZCsg2sIin1n7KSRhl-54" value="tipo" style="shape=partialRectangle;connectable=0;fillColor=none;top=0;left=0;bottom=0;right=0;align=left;spacingLeft=6;fontStyle=5;overflow=hidden;html=1;whiteSpace=wrap;" parent="mw6ZCsg2sIin1n7KSRhl-52" vertex="1">
          <mxGeometry x="60" width="120" height="30" as="geometry">
            <mxRectangle width="120" height="30" as="alternateBounds" />
          </mxGeometry>
        </mxCell>
        <mxCell id="mw6ZCsg2sIin1n7KSRhl-62" style="edgeStyle=orthogonalEdgeStyle;rounded=0;orthogonalLoop=1;jettySize=auto;html=1;entryX=-0.002;entryY=0.092;entryDx=0;entryDy=0;entryPerimeter=0;" parent="1" source="mw6ZCsg2sIin1n7KSRhl-48" target="lYNnbbYN6PRXDm3UlzL1-140" edge="1">
          <mxGeometry relative="1" as="geometry">
            <mxPoint x="240" y="550" as="targetPoint" />
            <Array as="points">
              <mxPoint x="-250" y="620" />
              <mxPoint x="-250" y="550" />
              <mxPoint x="220" y="550" />
            </Array>
          </mxGeometry>
        </mxCell>
        <mxCell id="H627HZ8AEeMIm0hUYU12-3" value="Pago es el pago acordado con el proveedor" style="shape=note;size=20;whiteSpace=wrap;html=1;" parent="1" vertex="1">
          <mxGeometry x="-310" y="950" width="100" height="100" as="geometry" />
        </mxCell>
        <mxCell id="JmZ1PSF2BTuWSMm5LOEp-5" value="El estandar de ITU para la longitud the numeros de telefonos es maximo 15 digitos, ponemos 16 para incluir el &#39;+&#39;" style="shape=note;size=20;whiteSpace=wrap;html=1;" parent="1" vertex="1">
          <mxGeometry y="180" width="110" height="140" as="geometry" />
        </mxCell>
        <mxCell id="p8LaczP0zEMSM8NXE0A2-1" value="Resena_Empleador" style="shape=table;startSize=30;container=1;collapsible=1;childLayout=tableLayout;fixedRows=1;rowLines=0;fontStyle=1;align=center;resizeLast=1;html=1;whiteSpace=wrap;" parent="1" vertex="1">
          <mxGeometry x="330" y="-230" width="205" height="150" as="geometry" />
        </mxCell>
        <mxCell id="p8LaczP0zEMSM8NXE0A2-2" value="" style="shape=tableRow;horizontal=0;startSize=0;swimlaneHead=0;swimlaneBody=0;fillColor=none;collapsible=0;dropTarget=0;points=[[0,0.5],[1,0.5]];portConstraint=eastwest;top=0;left=0;right=0;bottom=0;html=1;" parent="p8LaczP0zEMSM8NXE0A2-1" vertex="1">
          <mxGeometry y="30" width="205" height="30" as="geometry" />
        </mxCell>
        <mxCell id="p8LaczP0zEMSM8NXE0A2-3" value="PK,FK1" style="shape=partialRectangle;connectable=0;fillColor=none;top=0;left=0;bottom=0;right=0;fontStyle=1;overflow=hidden;html=1;whiteSpace=wrap;" parent="p8LaczP0zEMSM8NXE0A2-2" vertex="1">
          <mxGeometry width="60" height="30" as="geometry">
            <mxRectangle width="60" height="30" as="alternateBounds" />
          </mxGeometry>
        </mxCell>
        <mxCell id="p8LaczP0zEMSM8NXE0A2-4" value="proveedor" style="shape=partialRectangle;connectable=0;fillColor=none;top=0;left=0;bottom=0;right=0;align=left;spacingLeft=6;fontStyle=5;overflow=hidden;html=1;whiteSpace=wrap;" parent="p8LaczP0zEMSM8NXE0A2-2" vertex="1">
          <mxGeometry x="60" width="145" height="30" as="geometry">
            <mxRectangle width="145" height="30" as="alternateBounds" />
          </mxGeometry>
        </mxCell>
        <mxCell id="p8LaczP0zEMSM8NXE0A2-8" value="" style="shape=tableRow;horizontal=0;startSize=0;swimlaneHead=0;swimlaneBody=0;fillColor=none;collapsible=0;dropTarget=0;points=[[0,0.5],[1,0.5]];portConstraint=eastwest;top=0;left=0;right=0;bottom=0;html=1;" parent="p8LaczP0zEMSM8NXE0A2-1" vertex="1">
          <mxGeometry y="60" width="205" height="30" as="geometry" />
        </mxCell>
        <mxCell id="p8LaczP0zEMSM8NXE0A2-9" value="PK,FK2" style="shape=partialRectangle;connectable=0;fillColor=none;top=0;left=0;bottom=0;right=0;fontStyle=1;overflow=hidden;html=1;whiteSpace=wrap;" parent="p8LaczP0zEMSM8NXE0A2-8" vertex="1">
          <mxGeometry width="60" height="30" as="geometry">
            <mxRectangle width="60" height="30" as="alternateBounds" />
          </mxGeometry>
        </mxCell>
        <mxCell id="p8LaczP0zEMSM8NXE0A2-10" value="empleador" style="shape=partialRectangle;connectable=0;fillColor=none;top=0;left=0;bottom=0;right=0;align=left;spacingLeft=6;fontStyle=5;overflow=hidden;html=1;whiteSpace=wrap;" parent="p8LaczP0zEMSM8NXE0A2-8" vertex="1">
          <mxGeometry x="60" width="145" height="30" as="geometry">
            <mxRectangle width="145" height="30" as="alternateBounds" />
          </mxGeometry>
        </mxCell>
        <mxCell id="p8LaczP0zEMSM8NXE0A2-14" value="" style="shape=tableRow;horizontal=0;startSize=0;swimlaneHead=0;swimlaneBody=0;fillColor=none;collapsible=0;dropTarget=0;points=[[0,0.5],[1,0.5]];portConstraint=eastwest;top=0;left=0;right=0;bottom=0;html=1;" parent="p8LaczP0zEMSM8NXE0A2-1" vertex="1">
          <mxGeometry y="90" width="205" height="30" as="geometry" />
        </mxCell>
        <mxCell id="p8LaczP0zEMSM8NXE0A2-15" value="" style="shape=partialRectangle;connectable=0;fillColor=none;top=0;left=0;bottom=0;right=0;editable=1;overflow=hidden;html=1;whiteSpace=wrap;" parent="p8LaczP0zEMSM8NXE0A2-14" vertex="1">
          <mxGeometry width="60" height="30" as="geometry">
            <mxRectangle width="60" height="30" as="alternateBounds" />
          </mxGeometry>
        </mxCell>
        <mxCell id="p8LaczP0zEMSM8NXE0A2-16" value="calificacion/ tinyint" style="shape=partialRectangle;connectable=0;fillColor=none;top=0;left=0;bottom=0;right=0;align=left;spacingLeft=6;overflow=hidden;html=1;whiteSpace=wrap;" parent="p8LaczP0zEMSM8NXE0A2-14" vertex="1">
          <mxGeometry x="60" width="145" height="30" as="geometry">
            <mxRectangle width="145" height="30" as="alternateBounds" />
          </mxGeometry>
        </mxCell>
        <mxCell id="p8LaczP0zEMSM8NXE0A2-17" value="" style="shape=tableRow;horizontal=0;startSize=0;swimlaneHead=0;swimlaneBody=0;fillColor=none;collapsible=0;dropTarget=0;points=[[0,0.5],[1,0.5]];portConstraint=eastwest;top=0;left=0;right=0;bottom=0;html=1;" parent="p8LaczP0zEMSM8NXE0A2-1" vertex="1">
          <mxGeometry y="120" width="205" height="30" as="geometry" />
        </mxCell>
        <mxCell id="p8LaczP0zEMSM8NXE0A2-18" value="" style="shape=partialRectangle;connectable=0;fillColor=none;top=0;left=0;bottom=0;right=0;editable=1;overflow=hidden;html=1;whiteSpace=wrap;" parent="p8LaczP0zEMSM8NXE0A2-17" vertex="1">
          <mxGeometry width="60" height="30" as="geometry">
            <mxRectangle width="60" height="30" as="alternateBounds" />
          </mxGeometry>
        </mxCell>
        <mxCell id="p8LaczP0zEMSM8NXE0A2-19" value="comentarios/ varchar 150" style="shape=partialRectangle;connectable=0;fillColor=none;top=0;left=0;bottom=0;right=0;align=left;spacingLeft=6;overflow=hidden;html=1;whiteSpace=wrap;" parent="p8LaczP0zEMSM8NXE0A2-17" vertex="1">
          <mxGeometry x="60" width="145" height="30" as="geometry">
            <mxRectangle width="145" height="30" as="alternateBounds" />
          </mxGeometry>
        </mxCell>
        <mxCell id="p8LaczP0zEMSM8NXE0A2-20" style="edgeStyle=orthogonalEdgeStyle;rounded=0;orthogonalLoop=1;jettySize=auto;html=1;entryX=0.25;entryY=0;entryDx=0;entryDy=0;" parent="1" source="p8LaczP0zEMSM8NXE0A2-17" target="lYNnbbYN6PRXDm3UlzL1-30" edge="1">
          <mxGeometry relative="1" as="geometry">
            <Array as="points">
              <mxPoint x="415" y="-20" />
              <mxPoint x="415" y="-20" />
            </Array>
          </mxGeometry>
        </mxCell>
        <mxCell id="p8LaczP0zEMSM8NXE0A2-21" style="edgeStyle=orthogonalEdgeStyle;rounded=0;orthogonalLoop=1;jettySize=auto;html=1;entryX=0.75;entryY=0;entryDx=0;entryDy=0;" parent="1" source="p8LaczP0zEMSM8NXE0A2-17" target="lYNnbbYN6PRXDm3UlzL1-1" edge="1">
          <mxGeometry relative="1" as="geometry">
            <Array as="points">
              <mxPoint x="340" y="80" />
              <mxPoint x="255" y="80" />
            </Array>
          </mxGeometry>
        </mxCell>
        <mxCell id="0O9wjI1nSyGIc69ZhKmy-66" value="" style="shape=tableRow;horizontal=0;startSize=0;swimlaneHead=0;swimlaneBody=0;fillColor=none;collapsible=0;dropTarget=0;points=[[0,0.5],[1,0.5]];portConstraint=eastwest;top=0;left=0;right=0;bottom=0;html=1;" parent="1" vertex="1">
          <mxGeometry x="660" y="730" width="180" height="30" as="geometry" />
        </mxCell>
        <mxCell id="wf6ypoYj__s2kZzm4DJX-30" style="edgeStyle=orthogonalEdgeStyle;rounded=0;orthogonalLoop=1;jettySize=auto;html=1;" parent="1" source="lYNnbbYN6PRXDm3UlzL1-298" edge="1">
          <mxGeometry relative="1" as="geometry">
            <mxPoint x="780" y="510" as="targetPoint" />
            <Array as="points" />
          </mxGeometry>
        </mxCell>
        <mxCell id="EUtWTuzQYgCr-teSh7SM-73" value="En el tipo_remitente:&lt;br&gt;0 para empleador&lt;br&gt;1 para proveedor" style="shape=note;size=20;whiteSpace=wrap;html=1;" parent="1" vertex="1">
          <mxGeometry x="850" y="695" width="100" height="100" as="geometry" />
        </mxCell>
        <mxCell id="EUtWTuzQYgCr-teSh7SM-80" value="Tipo" style="shape=table;startSize=30;container=1;collapsible=1;childLayout=tableLayout;fixedRows=1;rowLines=0;fontStyle=1;align=center;resizeLast=1;html=1;" parent="1" vertex="1">
          <mxGeometry x="-590" y="360" width="180" height="90" as="geometry" />
        </mxCell>
        <mxCell id="EUtWTuzQYgCr-teSh7SM-81" value="" style="shape=tableRow;horizontal=0;startSize=0;swimlaneHead=0;swimlaneBody=0;fillColor=none;collapsible=0;dropTarget=0;points=[[0,0.5],[1,0.5]];portConstraint=eastwest;top=0;left=0;right=0;bottom=1;" parent="EUtWTuzQYgCr-teSh7SM-80" vertex="1">
          <mxGeometry y="30" width="180" height="30" as="geometry" />
        </mxCell>
        <mxCell id="EUtWTuzQYgCr-teSh7SM-82" value="PK" style="shape=partialRectangle;connectable=0;fillColor=none;top=0;left=0;bottom=0;right=0;fontStyle=1;overflow=hidden;whiteSpace=wrap;html=1;" parent="EUtWTuzQYgCr-teSh7SM-81" vertex="1">
          <mxGeometry width="30" height="30" as="geometry">
            <mxRectangle width="30" height="30" as="alternateBounds" />
          </mxGeometry>
        </mxCell>
        <mxCell id="EUtWTuzQYgCr-teSh7SM-83" value="id/ int" style="shape=partialRectangle;connectable=0;fillColor=none;top=0;left=0;bottom=0;right=0;align=left;spacingLeft=6;fontStyle=5;overflow=hidden;whiteSpace=wrap;html=1;" parent="EUtWTuzQYgCr-teSh7SM-81" vertex="1">
          <mxGeometry x="30" width="150" height="30" as="geometry">
            <mxRectangle width="150" height="30" as="alternateBounds" />
          </mxGeometry>
        </mxCell>
        <mxCell id="EUtWTuzQYgCr-teSh7SM-84" value="" style="shape=tableRow;horizontal=0;startSize=0;swimlaneHead=0;swimlaneBody=0;fillColor=none;collapsible=0;dropTarget=0;points=[[0,0.5],[1,0.5]];portConstraint=eastwest;top=0;left=0;right=0;bottom=0;" parent="EUtWTuzQYgCr-teSh7SM-80" vertex="1">
          <mxGeometry y="60" width="180" height="30" as="geometry" />
        </mxCell>
        <mxCell id="EUtWTuzQYgCr-teSh7SM-85" value="" style="shape=partialRectangle;connectable=0;fillColor=none;top=0;left=0;bottom=0;right=0;editable=1;overflow=hidden;whiteSpace=wrap;html=1;" parent="EUtWTuzQYgCr-teSh7SM-84" vertex="1">
          <mxGeometry width="30" height="30" as="geometry">
            <mxRectangle width="30" height="30" as="alternateBounds" />
          </mxGeometry>
        </mxCell>
        <mxCell id="EUtWTuzQYgCr-teSh7SM-86" value="nombre/ varchar 25" style="shape=partialRectangle;connectable=0;fillColor=none;top=0;left=0;bottom=0;right=0;align=left;spacingLeft=6;overflow=hidden;whiteSpace=wrap;html=1;" parent="EUtWTuzQYgCr-teSh7SM-84" vertex="1">
          <mxGeometry x="30" width="150" height="30" as="geometry">
            <mxRectangle width="150" height="30" as="alternateBounds" />
          </mxGeometry>
        </mxCell>
        <mxCell id="EUtWTuzQYgCr-teSh7SM-93" style="edgeStyle=orthogonalEdgeStyle;rounded=0;orthogonalLoop=1;jettySize=auto;html=1;entryX=0.5;entryY=0.998;entryDx=0;entryDy=0;entryPerimeter=0;" parent="1" source="mw6ZCsg2sIin1n7KSRhl-48" target="EUtWTuzQYgCr-teSh7SM-84" edge="1">
          <mxGeometry relative="1" as="geometry">
            <mxPoint x="-520" y="470" as="targetPoint" />
            <Array as="points" />
          </mxGeometry>
        </mxCell>
        <mxCell id="EUtWTuzQYgCr-teSh7SM-94" value="El chat guarda la cedula del empleador, a pesar de que rompe una forma normal (la BCNF, ya que con el servicio, puedes saber el empleador), debido a que esto beneficia el tiempo de buscado.&lt;br&gt;&lt;br&gt;Es decir, es mas facil buscar todos los chats de un empleador.&lt;br&gt;&lt;br&gt;Que de un empleador buscar los servicios, despues buscar cada chat de cada servicio" style="shape=note;size=20;whiteSpace=wrap;html=1;" parent="1" vertex="1">
          <mxGeometry x="780" y="160" width="190" height="210" as="geometry" />
        </mxCell>
        <mxCell id="EUtWTuzQYgCr-teSh7SM-97" value="la fecha_publicacion y fecha_cierre_postulacion se refieren al tiempo que se promociona el servicio en la pagina" style="shape=note;size=20;whiteSpace=wrap;html=1;" parent="1" vertex="1">
          <mxGeometry x="520" y="880" width="162" height="180" as="geometry" />
        </mxCell>
        <mxCell id="erZLeQpsnAuVGdrBEOkL-21" value="Chat" style="shape=table;startSize=30;container=1;collapsible=1;childLayout=tableLayout;fixedRows=1;rowLines=0;fontStyle=1;align=center;resizeLast=1;html=1;whiteSpace=wrap;" parent="1" vertex="1">
          <mxGeometry x="660" y="380" width="180" height="120" as="geometry" />
        </mxCell>
        <mxCell id="erZLeQpsnAuVGdrBEOkL-37" value="" style="shape=tableRow;horizontal=0;startSize=0;swimlaneHead=0;swimlaneBody=0;fillColor=none;collapsible=0;dropTarget=0;points=[[0,0.5],[1,0.5]];portConstraint=eastwest;top=0;left=0;right=0;bottom=0;html=1;" parent="erZLeQpsnAuVGdrBEOkL-21" vertex="1">
          <mxGeometry y="30" width="180" height="30" as="geometry" />
        </mxCell>
        <mxCell id="erZLeQpsnAuVGdrBEOkL-38" value="PK,FK2" style="shape=partialRectangle;connectable=0;fillColor=none;top=0;left=0;bottom=0;right=0;fontStyle=1;overflow=hidden;html=1;whiteSpace=wrap;" parent="erZLeQpsnAuVGdrBEOkL-37" vertex="1">
          <mxGeometry width="60" height="30" as="geometry">
            <mxRectangle width="60" height="30" as="alternateBounds" />
          </mxGeometry>
        </mxCell>
        <mxCell id="erZLeQpsnAuVGdrBEOkL-39" value="cedula_proveedor" style="shape=partialRectangle;connectable=0;fillColor=none;top=0;left=0;bottom=0;right=0;align=left;spacingLeft=6;fontStyle=5;overflow=hidden;html=1;whiteSpace=wrap;" parent="erZLeQpsnAuVGdrBEOkL-37" vertex="1">
          <mxGeometry x="60" width="120" height="30" as="geometry">
            <mxRectangle width="120" height="30" as="alternateBounds" />
          </mxGeometry>
        </mxCell>
        <mxCell id="erZLeQpsnAuVGdrBEOkL-25" value="" style="shape=tableRow;horizontal=0;startSize=0;swimlaneHead=0;swimlaneBody=0;fillColor=none;collapsible=0;dropTarget=0;points=[[0,0.5],[1,0.5]];portConstraint=eastwest;top=0;left=0;right=0;bottom=1;html=1;" parent="erZLeQpsnAuVGdrBEOkL-21" vertex="1">
          <mxGeometry y="60" width="180" height="30" as="geometry" />
        </mxCell>
        <mxCell id="erZLeQpsnAuVGdrBEOkL-26" value="PK,FK2" style="shape=partialRectangle;connectable=0;fillColor=none;top=0;left=0;bottom=0;right=0;fontStyle=1;overflow=hidden;html=1;whiteSpace=wrap;" parent="erZLeQpsnAuVGdrBEOkL-25" vertex="1">
          <mxGeometry width="60" height="30" as="geometry">
            <mxRectangle width="60" height="30" as="alternateBounds" />
          </mxGeometry>
        </mxCell>
        <mxCell id="erZLeQpsnAuVGdrBEOkL-27" value="id_servicio" style="shape=partialRectangle;connectable=0;fillColor=none;top=0;left=0;bottom=0;right=0;align=left;spacingLeft=6;fontStyle=5;overflow=hidden;html=1;whiteSpace=wrap;" parent="erZLeQpsnAuVGdrBEOkL-25" vertex="1">
          <mxGeometry x="60" width="120" height="30" as="geometry">
            <mxRectangle width="120" height="30" as="alternateBounds" />
          </mxGeometry>
        </mxCell>
        <mxCell id="erZLeQpsnAuVGdrBEOkL-28" value="" style="shape=tableRow;horizontal=0;startSize=0;swimlaneHead=0;swimlaneBody=0;fillColor=none;collapsible=0;dropTarget=0;points=[[0,0.5],[1,0.5]];portConstraint=eastwest;top=0;left=0;right=0;bottom=0;html=1;" parent="erZLeQpsnAuVGdrBEOkL-21" vertex="1">
          <mxGeometry y="90" width="180" height="30" as="geometry" />
        </mxCell>
        <mxCell id="erZLeQpsnAuVGdrBEOkL-29" value="Not Null, Unique" style="shape=partialRectangle;connectable=0;fillColor=none;top=0;left=0;bottom=0;right=0;editable=1;overflow=hidden;html=1;whiteSpace=wrap;" parent="erZLeQpsnAuVGdrBEOkL-28" vertex="1">
          <mxGeometry width="60" height="30" as="geometry">
            <mxRectangle width="60" height="30" as="alternateBounds" />
          </mxGeometry>
        </mxCell>
        <mxCell id="erZLeQpsnAuVGdrBEOkL-30" value="numero/ int" style="shape=partialRectangle;connectable=0;fillColor=none;top=0;left=0;bottom=0;right=0;align=left;spacingLeft=6;overflow=hidden;html=1;whiteSpace=wrap;" parent="erZLeQpsnAuVGdrBEOkL-28" vertex="1">
          <mxGeometry x="60" width="120" height="30" as="geometry">
            <mxRectangle width="120" height="30" as="alternateBounds" />
          </mxGeometry>
        </mxCell>
        <mxCell id="erZLeQpsnAuVGdrBEOkL-40" style="edgeStyle=orthogonalEdgeStyle;rounded=0;orthogonalLoop=1;jettySize=auto;html=1;entryX=1.005;entryY=0.087;entryDx=0;entryDy=0;entryPerimeter=0;" parent="1" source="erZLeQpsnAuVGdrBEOkL-21" target="lYNnbbYN6PRXDm3UlzL1-140" edge="1">
          <mxGeometry relative="1" as="geometry">
            <Array as="points">
              <mxPoint x="545" y="510" />
              <mxPoint x="545" y="549" />
            </Array>
          </mxGeometry>
        </mxCell>
        <mxCell id="VNKsDxX68P0mWsMF5VJX-1" value="El numero de chat no es una primary key, del chat, debido a que por problemas con SQL server, no nos deja referenciar desde el mensaje solo una parte de la base de datos, por ende nos toca dejar el mensaje fuera de la primary key, pero le damos los mismos atributos que una primary key (Es decir, Not Null y Unique), asi para todo efecto practico, es una primary key, pero para SQLserver, no es y por ende nos deja referenciar" style="shape=note;size=20;whiteSpace=wrap;html=1;" parent="1" vertex="1">
          <mxGeometry x="880" y="385" width="210" height="215" as="geometry" />
        </mxCell>
        <mxCell id="gVzFQTgOOPTnhe-5QHaK-1" style="edgeStyle=orthogonalEdgeStyle;rounded=0;orthogonalLoop=1;jettySize=auto;html=1;entryX=0.495;entryY=1.135;entryDx=0;entryDy=0;entryPerimeter=0;" parent="1" source="lYNnbbYN6PRXDm3UlzL1-140" target="wf6ypoYj__s2kZzm4DJX-27" edge="1">
          <mxGeometry relative="1" as="geometry">
            <mxPoint x="460" y="330" as="targetPoint" />
            <Array as="points">
              <mxPoint x="362" y="415" />
              <mxPoint x="459" y="415" />
            </Array>
          </mxGeometry>
        </mxCell>
        <mxCell id="gVzFQTgOOPTnhe-5QHaK-2" value="Contrato" style="shape=table;startSize=30;container=1;collapsible=1;childLayout=tableLayout;fixedRows=1;rowLines=0;fontStyle=1;align=center;resizeLast=1;html=1;" parent="1" vertex="1">
          <mxGeometry x="245" y="950" width="200" height="120" as="geometry" />
        </mxCell>
        <mxCell id="gVzFQTgOOPTnhe-5QHaK-3" value="" style="shape=tableRow;horizontal=0;startSize=0;swimlaneHead=0;swimlaneBody=0;fillColor=none;collapsible=0;dropTarget=0;points=[[0,0.5],[1,0.5]];portConstraint=eastwest;top=0;left=0;right=0;bottom=1;" parent="gVzFQTgOOPTnhe-5QHaK-2" vertex="1">
          <mxGeometry y="30" width="200" height="30" as="geometry" />
        </mxCell>
        <mxCell id="gVzFQTgOOPTnhe-5QHaK-4" value="PK, FK" style="shape=partialRectangle;connectable=0;fillColor=none;top=0;left=0;bottom=0;right=0;fontStyle=1;overflow=hidden;whiteSpace=wrap;html=1;" parent="gVzFQTgOOPTnhe-5QHaK-3" vertex="1">
          <mxGeometry width="60" height="30" as="geometry">
            <mxRectangle width="60" height="30" as="alternateBounds" />
          </mxGeometry>
        </mxCell>
        <mxCell id="gVzFQTgOOPTnhe-5QHaK-5" value="id_servicio/ int" style="shape=partialRectangle;connectable=0;fillColor=none;top=0;left=0;bottom=0;right=0;align=left;spacingLeft=6;fontStyle=5;overflow=hidden;whiteSpace=wrap;html=1;" parent="gVzFQTgOOPTnhe-5QHaK-3" vertex="1">
          <mxGeometry x="60" width="140" height="30" as="geometry">
            <mxRectangle width="140" height="30" as="alternateBounds" />
          </mxGeometry>
        </mxCell>
        <mxCell id="gVzFQTgOOPTnhe-5QHaK-6" value="" style="shape=tableRow;horizontal=0;startSize=0;swimlaneHead=0;swimlaneBody=0;fillColor=none;collapsible=0;dropTarget=0;points=[[0,0.5],[1,0.5]];portConstraint=eastwest;top=0;left=0;right=0;bottom=0;" parent="gVzFQTgOOPTnhe-5QHaK-2" vertex="1">
          <mxGeometry y="60" width="200" height="30" as="geometry" />
        </mxCell>
        <mxCell id="gVzFQTgOOPTnhe-5QHaK-7" value="" style="shape=partialRectangle;connectable=0;fillColor=none;top=0;left=0;bottom=0;right=0;editable=1;overflow=hidden;whiteSpace=wrap;html=1;" parent="gVzFQTgOOPTnhe-5QHaK-6" vertex="1">
          <mxGeometry width="60" height="30" as="geometry">
            <mxRectangle width="60" height="30" as="alternateBounds" />
          </mxGeometry>
        </mxCell>
        <mxCell id="gVzFQTgOOPTnhe-5QHaK-8" value="fecha_inicio" style="shape=partialRectangle;connectable=0;fillColor=none;top=0;left=0;bottom=0;right=0;align=left;spacingLeft=6;overflow=hidden;whiteSpace=wrap;html=1;" parent="gVzFQTgOOPTnhe-5QHaK-6" vertex="1">
          <mxGeometry x="60" width="140" height="30" as="geometry">
            <mxRectangle width="140" height="30" as="alternateBounds" />
          </mxGeometry>
        </mxCell>
        <mxCell id="gVzFQTgOOPTnhe-5QHaK-9" value="" style="shape=tableRow;horizontal=0;startSize=0;swimlaneHead=0;swimlaneBody=0;fillColor=none;collapsible=0;dropTarget=0;points=[[0,0.5],[1,0.5]];portConstraint=eastwest;top=0;left=0;right=0;bottom=0;" parent="gVzFQTgOOPTnhe-5QHaK-2" vertex="1">
          <mxGeometry y="90" width="200" height="30" as="geometry" />
        </mxCell>
        <mxCell id="gVzFQTgOOPTnhe-5QHaK-10" value="" style="shape=partialRectangle;connectable=0;fillColor=none;top=0;left=0;bottom=0;right=0;editable=1;overflow=hidden;whiteSpace=wrap;html=1;" parent="gVzFQTgOOPTnhe-5QHaK-9" vertex="1">
          <mxGeometry width="60" height="30" as="geometry">
            <mxRectangle width="60" height="30" as="alternateBounds" />
          </mxGeometry>
        </mxCell>
        <mxCell id="gVzFQTgOOPTnhe-5QHaK-11" value="fecha_finalizacion" style="shape=partialRectangle;connectable=0;fillColor=none;top=0;left=0;bottom=0;right=0;align=left;spacingLeft=6;overflow=hidden;whiteSpace=wrap;html=1;" parent="gVzFQTgOOPTnhe-5QHaK-9" vertex="1">
          <mxGeometry x="60" width="140" height="30" as="geometry">
            <mxRectangle width="140" height="30" as="alternateBounds" />
          </mxGeometry>
        </mxCell>
        <mxCell id="gVzFQTgOOPTnhe-5QHaK-15" style="edgeStyle=orthogonalEdgeStyle;rounded=0;orthogonalLoop=1;jettySize=auto;html=1;entryX=0.481;entryY=1.007;entryDx=0;entryDy=0;entryPerimeter=0;" parent="1" source="gVzFQTgOOPTnhe-5QHaK-2" target="rOvJ3Ont_MiSXSe-TAbP-1" edge="1">
          <mxGeometry relative="1" as="geometry">
            <Array as="points">
              <mxPoint x="345" y="900" />
              <mxPoint x="368" y="900" />
            </Array>
            <mxPoint x="400" y="910" as="targetPoint" />
          </mxGeometry>
        </mxCell>
        <mxCell id="gVzFQTgOOPTnhe-5QHaK-16" style="edgeStyle=orthogonalEdgeStyle;rounded=0;orthogonalLoop=1;jettySize=auto;html=1;entryX=1.014;entryY=0.053;entryDx=0;entryDy=0;entryPerimeter=0;" parent="1" source="erZLeQpsnAuVGdrBEOkL-21" target="mw6ZCsg2sIin1n7KSRhl-66" edge="1">
          <mxGeometry relative="1" as="geometry" />
        </mxCell>
        <mxCell id="nZ6Ej1aS9d3FhXuFBbOJ-1" value="Mantenimiento" style="shape=table;startSize=30;container=1;collapsible=1;childLayout=tableLayout;fixedRows=1;rowLines=0;fontStyle=1;align=center;resizeLast=1;html=1;whiteSpace=wrap;" parent="1" vertex="1">
          <mxGeometry x="-725" y="-390" width="205" height="180" as="geometry" />
        </mxCell>
        <mxCell id="nZ6Ej1aS9d3FhXuFBbOJ-2" value="" style="shape=tableRow;horizontal=0;startSize=0;swimlaneHead=0;swimlaneBody=0;fillColor=none;collapsible=0;dropTarget=0;points=[[0,0.5],[1,0.5]];portConstraint=eastwest;top=0;left=0;right=0;bottom=0;html=1;" parent="nZ6Ej1aS9d3FhXuFBbOJ-1" vertex="1">
          <mxGeometry y="30" width="205" height="30" as="geometry" />
        </mxCell>
        <mxCell id="nZ6Ej1aS9d3FhXuFBbOJ-3" value="PK" style="shape=partialRectangle;connectable=0;fillColor=none;top=0;left=0;bottom=0;right=0;fontStyle=1;overflow=hidden;html=1;whiteSpace=wrap;" parent="nZ6Ej1aS9d3FhXuFBbOJ-2" vertex="1">
          <mxGeometry width="60" height="30" as="geometry">
            <mxRectangle width="60" height="30" as="alternateBounds" />
          </mxGeometry>
        </mxCell>
        <mxCell id="nZ6Ej1aS9d3FhXuFBbOJ-4" value="id" style="shape=partialRectangle;connectable=0;fillColor=none;top=0;left=0;bottom=0;right=0;align=left;spacingLeft=6;fontStyle=5;overflow=hidden;html=1;whiteSpace=wrap;" parent="nZ6Ej1aS9d3FhXuFBbOJ-2" vertex="1">
          <mxGeometry x="60" width="145" height="30" as="geometry">
            <mxRectangle width="145" height="30" as="alternateBounds" />
          </mxGeometry>
        </mxCell>
        <mxCell id="nZ6Ej1aS9d3FhXuFBbOJ-8" value="" style="shape=tableRow;horizontal=0;startSize=0;swimlaneHead=0;swimlaneBody=0;fillColor=none;collapsible=0;dropTarget=0;points=[[0,0.5],[1,0.5]];portConstraint=eastwest;top=0;left=0;right=0;bottom=0;html=1;" parent="nZ6Ej1aS9d3FhXuFBbOJ-1" vertex="1">
          <mxGeometry y="60" width="205" height="30" as="geometry" />
        </mxCell>
        <mxCell id="nZ6Ej1aS9d3FhXuFBbOJ-9" value="" style="shape=partialRectangle;connectable=0;fillColor=none;top=0;left=0;bottom=0;right=0;editable=1;overflow=hidden;html=1;whiteSpace=wrap;" parent="nZ6Ej1aS9d3FhXuFBbOJ-8" vertex="1">
          <mxGeometry width="60" height="30" as="geometry">
            <mxRectangle width="60" height="30" as="alternateBounds" />
          </mxGeometry>
        </mxCell>
        <mxCell id="nZ6Ej1aS9d3FhXuFBbOJ-10" value="nombre / varchar(50)" style="shape=partialRectangle;connectable=0;fillColor=none;top=0;left=0;bottom=0;right=0;align=left;spacingLeft=6;overflow=hidden;html=1;whiteSpace=wrap;" parent="nZ6Ej1aS9d3FhXuFBbOJ-8" vertex="1">
          <mxGeometry x="60" width="145" height="30" as="geometry">
            <mxRectangle width="145" height="30" as="alternateBounds" />
          </mxGeometry>
        </mxCell>
        <mxCell id="nZ6Ej1aS9d3FhXuFBbOJ-11" value="" style="shape=tableRow;horizontal=0;startSize=0;swimlaneHead=0;swimlaneBody=0;fillColor=none;collapsible=0;dropTarget=0;points=[[0,0.5],[1,0.5]];portConstraint=eastwest;top=0;left=0;right=0;bottom=0;html=1;" parent="nZ6Ej1aS9d3FhXuFBbOJ-1" vertex="1">
          <mxGeometry y="90" width="205" height="30" as="geometry" />
        </mxCell>
        <mxCell id="nZ6Ej1aS9d3FhXuFBbOJ-12" value="" style="shape=partialRectangle;connectable=0;fillColor=none;top=0;left=0;bottom=0;right=0;editable=1;overflow=hidden;html=1;whiteSpace=wrap;" parent="nZ6Ej1aS9d3FhXuFBbOJ-11" vertex="1">
          <mxGeometry width="60" height="30" as="geometry">
            <mxRectangle width="60" height="30" as="alternateBounds" />
          </mxGeometry>
        </mxCell>
        <mxCell id="nZ6Ej1aS9d3FhXuFBbOJ-13" value="descripcion / varchar(400)" style="shape=partialRectangle;connectable=0;fillColor=none;top=0;left=0;bottom=0;right=0;align=left;spacingLeft=6;overflow=hidden;html=1;whiteSpace=wrap;" parent="nZ6Ej1aS9d3FhXuFBbOJ-11" vertex="1">
          <mxGeometry x="60" width="145" height="30" as="geometry">
            <mxRectangle width="145" height="30" as="alternateBounds" />
          </mxGeometry>
        </mxCell>
        <mxCell id="nZ6Ej1aS9d3FhXuFBbOJ-27" value="" style="shape=tableRow;horizontal=0;startSize=0;swimlaneHead=0;swimlaneBody=0;fillColor=none;collapsible=0;dropTarget=0;points=[[0,0.5],[1,0.5]];portConstraint=eastwest;top=0;left=0;right=0;bottom=0;html=1;" parent="nZ6Ej1aS9d3FhXuFBbOJ-1" vertex="1">
          <mxGeometry y="120" width="205" height="30" as="geometry" />
        </mxCell>
        <mxCell id="nZ6Ej1aS9d3FhXuFBbOJ-28" value="" style="shape=partialRectangle;connectable=0;fillColor=none;top=0;left=0;bottom=0;right=0;editable=1;overflow=hidden;html=1;whiteSpace=wrap;" parent="nZ6Ej1aS9d3FhXuFBbOJ-27" vertex="1">
          <mxGeometry width="60" height="30" as="geometry">
            <mxRectangle width="60" height="30" as="alternateBounds" />
          </mxGeometry>
        </mxCell>
        <mxCell id="nZ6Ej1aS9d3FhXuFBbOJ-29" value="inicio / datetime" style="shape=partialRectangle;connectable=0;fillColor=none;top=0;left=0;bottom=0;right=0;align=left;spacingLeft=6;overflow=hidden;html=1;whiteSpace=wrap;" parent="nZ6Ej1aS9d3FhXuFBbOJ-27" vertex="1">
          <mxGeometry x="60" width="145" height="30" as="geometry">
            <mxRectangle width="145" height="30" as="alternateBounds" />
          </mxGeometry>
        </mxCell>
        <mxCell id="nZ6Ej1aS9d3FhXuFBbOJ-30" value="" style="shape=tableRow;horizontal=0;startSize=0;swimlaneHead=0;swimlaneBody=0;fillColor=none;collapsible=0;dropTarget=0;points=[[0,0.5],[1,0.5]];portConstraint=eastwest;top=0;left=0;right=0;bottom=0;html=1;" parent="nZ6Ej1aS9d3FhXuFBbOJ-1" vertex="1">
          <mxGeometry y="150" width="205" height="30" as="geometry" />
        </mxCell>
        <mxCell id="nZ6Ej1aS9d3FhXuFBbOJ-31" value="" style="shape=partialRectangle;connectable=0;fillColor=none;top=0;left=0;bottom=0;right=0;editable=1;overflow=hidden;html=1;whiteSpace=wrap;" parent="nZ6Ej1aS9d3FhXuFBbOJ-30" vertex="1">
          <mxGeometry width="60" height="30" as="geometry">
            <mxRectangle width="60" height="30" as="alternateBounds" />
          </mxGeometry>
        </mxCell>
        <mxCell id="nZ6Ej1aS9d3FhXuFBbOJ-32" value="finalizacion / datetime" style="shape=partialRectangle;connectable=0;fillColor=none;top=0;left=0;bottom=0;right=0;align=left;spacingLeft=6;overflow=hidden;html=1;whiteSpace=wrap;" parent="nZ6Ej1aS9d3FhXuFBbOJ-30" vertex="1">
          <mxGeometry x="60" width="145" height="30" as="geometry">
            <mxRectangle width="145" height="30" as="alternateBounds" />
          </mxGeometry>
        </mxCell>
        <mxCell id="nZ6Ej1aS9d3FhXuFBbOJ-34" value="Acciones_Mantenimientos" style="shape=table;startSize=30;container=1;collapsible=1;childLayout=tableLayout;fixedRows=1;rowLines=0;fontStyle=1;align=center;resizeLast=1;html=1;whiteSpace=wrap;" parent="1" vertex="1">
          <mxGeometry x="-455" y="-390" width="205" height="120" as="geometry" />
        </mxCell>
        <mxCell id="nZ6Ej1aS9d3FhXuFBbOJ-35" value="" style="shape=tableRow;horizontal=0;startSize=0;swimlaneHead=0;swimlaneBody=0;fillColor=none;collapsible=0;dropTarget=0;points=[[0,0.5],[1,0.5]];portConstraint=eastwest;top=0;left=0;right=0;bottom=0;html=1;" parent="nZ6Ej1aS9d3FhXuFBbOJ-34" vertex="1">
          <mxGeometry y="30" width="205" height="30" as="geometry" />
        </mxCell>
        <mxCell id="nZ6Ej1aS9d3FhXuFBbOJ-36" value="PK, FK" style="shape=partialRectangle;connectable=0;fillColor=none;top=0;left=0;bottom=0;right=0;fontStyle=1;overflow=hidden;html=1;whiteSpace=wrap;" parent="nZ6Ej1aS9d3FhXuFBbOJ-35" vertex="1">
          <mxGeometry width="60" height="30" as="geometry">
            <mxRectangle width="60" height="30" as="alternateBounds" />
          </mxGeometry>
        </mxCell>
        <mxCell id="nZ6Ej1aS9d3FhXuFBbOJ-37" value="id_mantenimiento" style="shape=partialRectangle;connectable=0;fillColor=none;top=0;left=0;bottom=0;right=0;align=left;spacingLeft=6;fontStyle=5;overflow=hidden;html=1;whiteSpace=wrap;" parent="nZ6Ej1aS9d3FhXuFBbOJ-35" vertex="1">
          <mxGeometry x="60" width="145" height="30" as="geometry">
            <mxRectangle width="145" height="30" as="alternateBounds" />
          </mxGeometry>
        </mxCell>
        <mxCell id="nZ6Ej1aS9d3FhXuFBbOJ-38" value="" style="shape=tableRow;horizontal=0;startSize=0;swimlaneHead=0;swimlaneBody=0;fillColor=none;collapsible=0;dropTarget=0;points=[[0,0.5],[1,0.5]];portConstraint=eastwest;top=0;left=0;right=0;bottom=0;html=1;" parent="nZ6Ej1aS9d3FhXuFBbOJ-34" vertex="1">
          <mxGeometry y="60" width="205" height="30" as="geometry" />
        </mxCell>
        <mxCell id="nZ6Ej1aS9d3FhXuFBbOJ-39" value="&lt;b&gt;PK&lt;/b&gt;" style="shape=partialRectangle;connectable=0;fillColor=none;top=0;left=0;bottom=0;right=0;editable=1;overflow=hidden;html=1;whiteSpace=wrap;" parent="nZ6Ej1aS9d3FhXuFBbOJ-38" vertex="1">
          <mxGeometry width="60" height="30" as="geometry">
            <mxRectangle width="60" height="30" as="alternateBounds" />
          </mxGeometry>
        </mxCell>
        <mxCell id="nZ6Ej1aS9d3FhXuFBbOJ-40" value="&lt;b&gt;&lt;u&gt;numero_accion&lt;/u&gt;&lt;/b&gt;" style="shape=partialRectangle;connectable=0;fillColor=none;top=0;left=0;bottom=0;right=0;align=left;spacingLeft=6;overflow=hidden;html=1;whiteSpace=wrap;" parent="nZ6Ej1aS9d3FhXuFBbOJ-38" vertex="1">
          <mxGeometry x="60" width="145" height="30" as="geometry">
            <mxRectangle width="145" height="30" as="alternateBounds" />
          </mxGeometry>
        </mxCell>
        <mxCell id="nZ6Ej1aS9d3FhXuFBbOJ-41" value="" style="shape=tableRow;horizontal=0;startSize=0;swimlaneHead=0;swimlaneBody=0;fillColor=none;collapsible=0;dropTarget=0;points=[[0,0.5],[1,0.5]];portConstraint=eastwest;top=0;left=0;right=0;bottom=0;html=1;" parent="nZ6Ej1aS9d3FhXuFBbOJ-34" vertex="1">
          <mxGeometry y="90" width="205" height="30" as="geometry" />
        </mxCell>
        <mxCell id="nZ6Ej1aS9d3FhXuFBbOJ-42" value="" style="shape=partialRectangle;connectable=0;fillColor=none;top=0;left=0;bottom=0;right=0;editable=1;overflow=hidden;html=1;whiteSpace=wrap;" parent="nZ6Ej1aS9d3FhXuFBbOJ-41" vertex="1">
          <mxGeometry width="60" height="30" as="geometry">
            <mxRectangle width="60" height="30" as="alternateBounds" />
          </mxGeometry>
        </mxCell>
        <mxCell id="nZ6Ej1aS9d3FhXuFBbOJ-43" value="accion / varchar(40)" style="shape=partialRectangle;connectable=0;fillColor=none;top=0;left=0;bottom=0;right=0;align=left;spacingLeft=6;overflow=hidden;html=1;whiteSpace=wrap;" parent="nZ6Ej1aS9d3FhXuFBbOJ-41" vertex="1">
          <mxGeometry x="60" width="145" height="30" as="geometry">
            <mxRectangle width="145" height="30" as="alternateBounds" />
          </mxGeometry>
        </mxCell>
        <mxCell id="nZ6Ej1aS9d3FhXuFBbOJ-63" style="edgeStyle=orthogonalEdgeStyle;rounded=0;orthogonalLoop=1;jettySize=auto;html=1;entryX=0.5;entryY=0;entryDx=0;entryDy=0;exitX=0.535;exitY=1.021;exitDx=0;exitDy=0;exitPerimeter=0;" parent="1" source="nZ6Ej1aS9d3FhXuFBbOJ-59" target="nZ6Ej1aS9d3FhXuFBbOJ-1" edge="1">
          <mxGeometry relative="1" as="geometry">
            <Array as="points">
              <mxPoint x="-615" y="-390" />
            </Array>
          </mxGeometry>
        </mxCell>
        <mxCell id="nZ6Ej1aS9d3FhXuFBbOJ-52" value="Mantenimiento_Activo" style="shape=table;startSize=30;container=1;collapsible=1;childLayout=tableLayout;fixedRows=1;rowLines=0;fontStyle=1;align=center;resizeLast=1;html=1;whiteSpace=wrap;" parent="1" vertex="1">
          <mxGeometry x="-725" y="-520" width="205" height="60" as="geometry" />
        </mxCell>
        <mxCell id="nZ6Ej1aS9d3FhXuFBbOJ-59" value="" style="shape=tableRow;horizontal=0;startSize=0;swimlaneHead=0;swimlaneBody=0;fillColor=none;collapsible=0;dropTarget=0;points=[[0,0.5],[1,0.5]];portConstraint=eastwest;top=0;left=0;right=0;bottom=0;html=1;" parent="nZ6Ej1aS9d3FhXuFBbOJ-52" vertex="1">
          <mxGeometry y="30" width="205" height="30" as="geometry" />
        </mxCell>
        <mxCell id="nZ6Ej1aS9d3FhXuFBbOJ-60" value="PK, FK" style="shape=partialRectangle;connectable=0;fillColor=none;top=0;left=0;bottom=0;right=0;editable=1;overflow=hidden;html=1;whiteSpace=wrap;" parent="nZ6Ej1aS9d3FhXuFBbOJ-59" vertex="1">
          <mxGeometry width="60" height="30" as="geometry">
            <mxRectangle width="60" height="30" as="alternateBounds" />
          </mxGeometry>
        </mxCell>
        <mxCell id="nZ6Ej1aS9d3FhXuFBbOJ-61" value="id_mantenimiento" style="shape=partialRectangle;connectable=0;fillColor=none;top=0;left=0;bottom=0;right=0;align=left;spacingLeft=6;overflow=hidden;html=1;whiteSpace=wrap;" parent="nZ6Ej1aS9d3FhXuFBbOJ-59" vertex="1">
          <mxGeometry x="60" width="145" height="30" as="geometry">
            <mxRectangle width="145" height="30" as="alternateBounds" />
          </mxGeometry>
        </mxCell>
        <mxCell id="nZ6Ej1aS9d3FhXuFBbOJ-62" style="edgeStyle=orthogonalEdgeStyle;rounded=0;orthogonalLoop=1;jettySize=auto;html=1;entryX=1;entryY=0.5;entryDx=0;entryDy=0;" parent="1" source="nZ6Ej1aS9d3FhXuFBbOJ-35" target="nZ6Ej1aS9d3FhXuFBbOJ-2" edge="1">
          <mxGeometry relative="1" as="geometry" />
        </mxCell>
        <mxCell id="nZ6Ej1aS9d3FhXuFBbOJ-64" value="Promedio_Calificaciones_Proveedor" style="shape=table;startSize=30;container=1;collapsible=1;childLayout=tableLayout;fixedRows=1;rowLines=0;fontStyle=1;align=center;resizeLast=1;html=1;whiteSpace=wrap;" parent="1" vertex="1">
          <mxGeometry y="-520" width="240" height="90" as="geometry" />
        </mxCell>
        <mxCell id="nZ6Ej1aS9d3FhXuFBbOJ-65" value="" style="shape=tableRow;horizontal=0;startSize=0;swimlaneHead=0;swimlaneBody=0;fillColor=none;collapsible=0;dropTarget=0;points=[[0,0.5],[1,0.5]];portConstraint=eastwest;top=0;left=0;right=0;bottom=0;html=1;" parent="nZ6Ej1aS9d3FhXuFBbOJ-64" vertex="1">
          <mxGeometry y="30" width="240" height="30" as="geometry" />
        </mxCell>
        <mxCell id="nZ6Ej1aS9d3FhXuFBbOJ-66" value="PK" style="shape=partialRectangle;connectable=0;fillColor=none;top=0;left=0;bottom=0;right=0;fontStyle=1;overflow=hidden;html=1;whiteSpace=wrap;" parent="nZ6Ej1aS9d3FhXuFBbOJ-65" vertex="1">
          <mxGeometry width="60" height="30" as="geometry">
            <mxRectangle width="60" height="30" as="alternateBounds" />
          </mxGeometry>
        </mxCell>
        <mxCell id="nZ6Ej1aS9d3FhXuFBbOJ-67" value="Proveedor/ varchar(50)" style="shape=partialRectangle;connectable=0;fillColor=none;top=0;left=0;bottom=0;right=0;align=left;spacingLeft=6;fontStyle=5;overflow=hidden;html=1;whiteSpace=wrap;" parent="nZ6Ej1aS9d3FhXuFBbOJ-65" vertex="1">
          <mxGeometry x="60" width="180" height="30" as="geometry">
            <mxRectangle width="180" height="30" as="alternateBounds" />
          </mxGeometry>
        </mxCell>
        <mxCell id="nZ6Ej1aS9d3FhXuFBbOJ-71" value="" style="shape=tableRow;horizontal=0;startSize=0;swimlaneHead=0;swimlaneBody=0;fillColor=none;collapsible=0;dropTarget=0;points=[[0,0.5],[1,0.5]];portConstraint=eastwest;top=0;left=0;right=0;bottom=0;html=1;" parent="nZ6Ej1aS9d3FhXuFBbOJ-64" vertex="1">
          <mxGeometry y="60" width="240" height="30" as="geometry" />
        </mxCell>
        <mxCell id="nZ6Ej1aS9d3FhXuFBbOJ-72" value="" style="shape=partialRectangle;connectable=0;fillColor=none;top=0;left=0;bottom=0;right=0;editable=1;overflow=hidden;html=1;whiteSpace=wrap;" parent="nZ6Ej1aS9d3FhXuFBbOJ-71" vertex="1">
          <mxGeometry width="60" height="30" as="geometry">
            <mxRectangle width="60" height="30" as="alternateBounds" />
          </mxGeometry>
        </mxCell>
        <mxCell id="nZ6Ej1aS9d3FhXuFBbOJ-73" value="CalificacionPromedio/ float" style="shape=partialRectangle;connectable=0;fillColor=none;top=0;left=0;bottom=0;right=0;align=left;spacingLeft=6;overflow=hidden;html=1;whiteSpace=wrap;" parent="nZ6Ej1aS9d3FhXuFBbOJ-71" vertex="1">
          <mxGeometry x="60" width="180" height="30" as="geometry">
            <mxRectangle width="180" height="30" as="alternateBounds" />
          </mxGeometry>
        </mxCell>
      </root>
    </mxGraphModel>
  </diagram>
</mxfile>
